<svg aria-hidden="true" style="width:0;height:0;position:absolute;overflow:hidden" xmlns="http://www.w3.org/2000/svg"><defs><symbol id="dots-sm-1" viewBox="0 0 205 32"><path d="M155.332 29.617c0 .982-.764 1.779-1.706 1.779s-1.706-.796-1.706-1.779c0-.982.764-1.779 1.706-1.779s1.706.796 1.706 1.779zM159.029 27.245c0 .982-.764 1.779-1.706 1.779s-1.706-.796-1.706-1.779c0-.982.764-1.779 1.706-1.779s1.706.796 1.706 1.779zM163.292 24.578c0 .982-.764 1.779-1.706 1.779s-1.706-.796-1.706-1.779c0-.982.764-1.779 1.706-1.779s1.706.796 1.706 1.779zM167.273 22.207c0 .982-.764 1.779-1.706 1.779s-1.706-.796-1.706-1.779c0-.982.764-1.779 1.706-1.779s1.706.796 1.706 1.779zM164.998 28.431c0 .982-.764 1.779-1.706 1.779s-1.706-.796-1.706-1.779c0-.982.764-1.779 1.706-1.779s1.706.796 1.706 1.779zM168.694 26.06c0 .982-.764 1.779-1.706 1.779s-1.706-.796-1.706-1.779c0-.982.764-1.779 1.706-1.779s1.706.796 1.706 1.779zM172.957 23.392c0 .982-.764 1.779-1.706 1.779s-1.706-.796-1.706-1.779c0-.982.764-1.779 1.706-1.779s1.706.796 1.706 1.779zM176.939 21.021c0 .982-.764 1.779-1.706 1.779s-1.706-.796-1.706-1.779c0-.982.764-1.779 1.706-1.779s1.706.796 1.706 1.779zM173.243 27.542c0 .982-.764 1.779-1.706 1.779s-1.706-.796-1.706-1.779c0-.982.764-1.779 1.706-1.779s1.706.796 1.706 1.779zM176.94 25.171c0 .982-.764 1.779-1.706 1.779s-1.706-.796-1.706-1.779c0-.982.764-1.779 1.706-1.779s1.706.796 1.706 1.779zM181.204 22.503c0 .982-.764 1.779-1.706 1.779s-1.706-.796-1.706-1.779c0-.982.764-1.779 1.706-1.779s1.706.796 1.706 1.779zM185.183 20.132c0 .982-.764 1.779-1.706 1.779s-1.706-.796-1.706-1.779c0-.982.764-1.779 1.706-1.779s1.706.796 1.706 1.779zM181.203 26.356c0 .982-.764 1.779-1.706 1.779s-1.706-.796-1.706-1.779c0-.982.764-1.779 1.706-1.779s1.706.796 1.706 1.779zM184.897 23.985c0 .982-.764 1.779-1.706 1.779s-1.706-.796-1.706-1.779c0-.982.764-1.779 1.706-1.779s1.706.796 1.706 1.779zM189.162 21.318c0 .982-.764 1.779-1.706 1.779s-1.706-.796-1.706-1.779c0-.982.764-1.779 1.706-1.779s1.706.796 1.706 1.779zM193.142 18.947c0 .982-.764 1.779-1.706 1.779s-1.706-.796-1.706-1.779c0-.982.764-1.779 1.706-1.779s1.706.796 1.706 1.779zM183.762 29.617c0 .982-.764 1.779-1.706 1.779s-1.706-.796-1.706-1.779c0-.982.764-1.779 1.706-1.779s1.706.796 1.706 1.779zM187.458 27.245c0 .982-.764 1.779-1.706 1.779s-1.706-.796-1.706-1.779c0-.982.764-1.779 1.706-1.779s1.706.796 1.706 1.779zM192.575 29.913c0 .982-.764 1.779-1.706 1.779s-1.706-.796-1.706-1.779c0-.982.764-1.779 1.706-1.779s1.706.796 1.706 1.779zM191.723 24.578c0 .982-.764 1.779-1.706 1.779s-1.706-.796-1.706-1.779c0-.982.764-1.779 1.706-1.779s1.706.796 1.706 1.779zM196.84 27.245c0 .982-.764 1.779-1.706 1.779s-1.706-.796-1.706-1.779c0-.982.764-1.779 1.706-1.779s1.706.796 1.706 1.779zM200.82 29.913c0 .982-.764 1.779-1.706 1.779s-1.706-.796-1.706-1.779c0-.982.764-1.779 1.706-1.779s1.706.796 1.706 1.779zM195.702 22.207c0 .982-.764 1.779-1.706 1.779s-1.706-.796-1.706-1.779c0-.982.764-1.779 1.706-1.779s1.706.796 1.706 1.779zM200.82 24.874c0 .982-.764 1.779-1.706 1.779s-1.706-.796-1.706-1.779c0-.982.764-1.779 1.706-1.779s1.706.796 1.706 1.779zM204.8 27.542c0 .982-.764 1.779-1.706 1.779s-1.706-.796-1.706-1.779c0-.982.764-1.779 1.706-1.779s1.706.796 1.706 1.779zM137.992 10.055c0 .982-.764 1.779-1.706 1.779s-1.706-.796-1.706-1.779c0-.982.764-1.779 1.706-1.779s1.706.796 1.706 1.779zM141.688 7.684c0 .982-.764 1.779-1.706 1.779s-1.706-.796-1.706-1.779c0-.982.764-1.779 1.706-1.779s1.706.796 1.706 1.779zM145.953 5.016c0 .982-.764 1.779-1.706 1.779s-1.706-.796-1.706-1.779c0-.982.764-1.779 1.706-1.779s1.706.796 1.706 1.779zM149.932 2.645c0 .982-.764 1.779-1.706 1.779s-1.706-.796-1.706-1.779c0-.982.764-1.779 1.706-1.779s1.706.796 1.706 1.779zM130.884 9.758c0 .982-.764 1.779-1.706 1.779s-1.706-.796-1.706-1.779c0-.982.764-1.779 1.706-1.779s1.706.796 1.706 1.779zM134.579 7.387c0 .982-.764 1.779-1.706 1.779s-1.706-.796-1.706-1.779c0-.982.764-1.779 1.706-1.779s1.706.796 1.706 1.779zM138.844 4.72c0 .982-.764 1.779-1.706 1.779s-1.706-.796-1.706-1.779c0-.982.764-1.779 1.706-1.779s1.706.796 1.706 1.779zM142.824 2.349c0 .982-.764 1.779-1.706 1.779s-1.706-.796-1.706-1.779c0-.982.764-1.779 1.706-1.779s1.706.796 1.706 1.779zM146.804 29.617c0 .982-.764 1.779-1.706 1.779s-1.706-.796-1.706-1.779c0-.982.764-1.779 1.706-1.779s1.706.796 1.706 1.779zM150.499 27.245c0 .982-.764 1.779-1.706 1.779s-1.706-.796-1.706-1.779c0-.982.764-1.779 1.706-1.779s1.706.796 1.706 1.779zM154.763 24.578c0 .982-.764 1.779-1.706 1.779s-1.706-.796-1.706-1.779c0-.982.764-1.779 1.706-1.779s1.706.796 1.706 1.779zM158.744 22.207c0 .982-.764 1.779-1.706 1.779s-1.706-.796-1.706-1.779c0-.982.764-1.779 1.706-1.779s1.706.796 1.706 1.779zM142.256 27.839c0 .982-.764 1.779-1.706 1.779s-1.706-.796-1.706-1.779c0-.982.764-1.779 1.706-1.779s1.706.796 1.706 1.779zM145.951 25.468c0 .982-.764 1.779-1.706 1.779s-1.706-.796-1.706-1.779c0-.982.764-1.779 1.706-1.779s1.706.796 1.706 1.779zM150.215 22.799c0 .982-.764 1.779-1.706 1.779s-1.706-.796-1.706-1.779c0-.982.764-1.779 1.706-1.779s1.706.796 1.706 1.779zM154.196 20.429c0 .982-.764 1.779-1.706 1.779s-1.706-.796-1.706-1.779c0-.982.764-1.779 1.706-1.779s1.706.796 1.706 1.779zM143.962 21.614c0 .982-.764 1.779-1.706 1.779s-1.706-.796-1.706-1.779c0-.982.764-1.779 1.706-1.779s1.706.796 1.706 1.779zM147.656 19.243c0 .982-.764 1.779-1.706 1.779s-1.706-.796-1.706-1.779c0-.982.764-1.779 1.706-1.779s1.706.796 1.706 1.779zM151.922 16.575c0 .982-.764 1.779-1.706 1.779s-1.706-.796-1.706-1.779c0-.982.764-1.779 1.706-1.779s1.706.796 1.706 1.779zM155.901 14.204c0 .982-.764 1.779-1.706 1.779s-1.706-.796-1.706-1.779c0-.982.764-1.779 1.706-1.779s1.706.796 1.706 1.779zM143.962 11.24c0 .982-.764 1.779-1.706 1.779s-1.706-.796-1.706-1.779c0-.982.764-1.779 1.706-1.779s1.706.796 1.706 1.779zM147.656 8.869c0 .982-.764 1.779-1.706 1.779s-1.706-.796-1.706-1.779c0-.982.764-1.779 1.706-1.779s1.706.796 1.706 1.779zM151.922 6.202c0 .982-.764 1.779-1.706 1.779s-1.706-.796-1.706-1.779c0-.982.764-1.779 1.706-1.779s1.706.796 1.706 1.779zM155.901 3.83c0 .982-.764 1.779-1.706 1.779s-1.706-.796-1.706-1.779c0-.982.764-1.779 1.706-1.779s1.706.796 1.706 1.779zM143.108 16.872c0 .982-.764 1.779-1.706 1.779s-1.706-.796-1.706-1.779c0-.982.764-1.779 1.706-1.779s1.706.796 1.706 1.779zM146.804 14.5c0 .982-.764 1.779-1.706 1.779s-1.706-.796-1.706-1.779c0-.982.764-1.779 1.706-1.779s1.706.796 1.706 1.779zM151.068 11.834c0 .982-.764 1.779-1.706 1.779s-1.706-.796-1.706-1.779c0-.982.764-1.779 1.706-1.779s1.706.796 1.706 1.779zM155.048 9.462c0 .982-.764 1.779-1.706 1.779s-1.706-.796-1.706-1.779c0-.982.764-1.779 1.706-1.779s1.706.796 1.706 1.779zM125.198 8.276c0 .982-.764 1.779-1.706 1.779s-1.706-.796-1.706-1.779c0-.982.764-1.779 1.706-1.779s1.706.796 1.706 1.779zM128.895 5.905c0 .982-.764 1.779-1.706 1.779s-1.706-.796-1.706-1.779c0-.982.764-1.779 1.706-1.779s1.706.796 1.706 1.779zM133.159 3.238c0 .982-.764 1.779-1.706 1.779s-1.706-.796-1.706-1.779c0-.982.764-1.779 1.706-1.779s1.706.796 1.706 1.779z"/><path d="M131.169 10.054c.942 0 1.706-.796 1.706-1.778s-.764-1.779-1.706-1.779-1.706.796-1.706 1.779c0 .982.764 1.778 1.706 1.778zM52.732 21.475c.145.985-.504 1.906-1.449 2.057s-1.828-.525-1.973-1.51c-.145-.985.504-1.906 1.449-2.057s1.828.525 1.973 1.51zM56.09 18.504c.145.985-.504 1.906-1.449 2.057s-1.828-.525-1.973-1.51c-.145-.985.504-1.906 1.449-2.057s1.828.525 1.973 1.51zM59.974 15.144c.145.985-.504 1.906-1.449 2.057s-1.828-.525-1.973-1.51c-.145-.985.504-1.906 1.449-2.057s1.828.525 1.973 1.51zM63.617 12.128c.145.985-.504 1.906-1.449 2.057s-1.828-.525-1.973-1.51c-.145-.985.504-1.906 1.449-2.057s1.828.525 1.973 1.51zM2.132 19.067c0 .997-.779 1.805-1.741 1.805s-1.741-.808-1.741-1.805c0-.997.779-1.805 1.741-1.805s1.741.808 1.741 1.805zM6.485 16.36c0 .997-.779 1.805-1.741 1.805s-1.741-.808-1.741-1.805c0-.997.779-1.805 1.741-1.805s1.741.808 1.741 1.805zM10.546 13.953c0 .997-.779 1.805-1.741 1.805s-1.741-.808-1.741-1.805c0-.997.779-1.805 1.741-1.805s1.741.808 1.741 1.805zM.102 25.984c0 .997-.779 1.805-1.741 1.805s-1.741-.808-1.741-1.805c0-.997.779-1.805 1.741-1.805s1.741.808 1.741 1.805zM3.874 23.578c0 .997-.779 1.805-1.741 1.805S.392 24.575.392 23.578c0-.997.779-1.805 1.741-1.805s1.741.808 1.741 1.805zM8.227 20.871c0 .997-.779 1.805-1.741 1.805s-1.741-.808-1.741-1.805c0-.997.779-1.805 1.741-1.805s1.741.808 1.741 1.805zM12.287 18.465c0 .997-.779 1.805-1.741 1.805s-1.741-.808-1.741-1.805c0-.997.779-1.805 1.741-1.805s1.741.808 1.741 1.805zM4.453 28.39c0 .997-.779 1.805-1.741 1.805S.971 29.387.971 28.39c0-.997.779-1.805 1.741-1.805s1.741.808 1.741 1.805zM8.225 25.984c0 .997-.779 1.805-1.741 1.805s-1.741-.808-1.741-1.805c0-.997.779-1.805 1.741-1.805s1.741.808 1.741 1.805zM12.577 23.277c0 .997-.779 1.805-1.741 1.805s-1.741-.808-1.741-1.805c0-.997.779-1.805 1.741-1.805s1.741.808 1.741 1.805zM16.637 20.871c0 .997-.779 1.805-1.741 1.805s-1.741-.808-1.741-1.805c0-.997.779-1.805 1.741-1.805s1.741.808 1.741 1.805zM9.384 29.895c0 .997-.779 1.805-1.741 1.805s-1.741-.808-1.741-1.805c0-.997.779-1.805 1.741-1.805s1.741.808 1.741 1.805zM13.156 27.488c0 .997-.779 1.805-1.741 1.805s-1.741-.808-1.741-1.805c0-.997.779-1.805 1.741-1.805s1.741.808 1.741 1.805zM17.509 24.781c0 .997-.779 1.805-1.741 1.805s-1.741-.808-1.741-1.805c0-.997.779-1.805 1.741-1.805s1.741.808 1.741 1.805zM21.569 22.375c0 .997-.779 1.805-1.741 1.805s-1.741-.808-1.741-1.805c0-.997.779-1.805 1.741-1.805s1.741.808 1.741 1.805z"/><path d="M15.768 30.196c0 .997-.779 1.805-1.741 1.805s-1.741-.808-1.741-1.805c0-.997.779-1.805 1.741-1.805s1.741.808 1.741 1.805zM19.539 27.789c0 .997-.779 1.805-1.741 1.805s-1.741-.808-1.741-1.805c0-.997.779-1.805 1.741-1.805s1.741.808 1.741 1.805zM23.891 25.082c0 .997-.779 1.805-1.741 1.805s-1.741-.808-1.741-1.805c0-.997.779-1.805 1.741-1.805s1.741.808 1.741 1.805zM27.952 22.676c0 .997-.779 1.805-1.741 1.805s-1.741-.808-1.741-1.805c0-.997.779-1.805 1.741-1.805s1.741.808 1.741 1.805zM23.311 30.195c0 .997-.779 1.805-1.741 1.805s-1.741-.808-1.741-1.805c0-.997.779-1.805 1.741-1.805s1.741.808 1.741 1.805zM27.082 27.789c0 .997-.779 1.805-1.741 1.805s-1.741-.808-1.741-1.805c0-.997.779-1.805 1.741-1.805s1.741.808 1.741 1.805zM31.434 25.082c0 .997-.779 1.805-1.741 1.805s-1.741-.808-1.741-1.805c0-.997.779-1.805 1.741-1.805s1.741.808 1.741 1.805zM35.496 22.676c0 .997-.779 1.805-1.741 1.805s-1.741-.808-1.741-1.805c0-.997.779-1.805 1.741-1.805s1.741.808 1.741 1.805z"/><path d="M29.692 29.894c0 .997-.779 1.805-1.741 1.805s-1.741-.808-1.741-1.805c0-.997.779-1.805 1.741-1.805s1.741.808 1.741 1.805zM33.463 27.488c0 .997-.779 1.805-1.741 1.805s-1.741-.808-1.741-1.805c0-.997.779-1.805 1.741-1.805s1.741.808 1.741 1.805zM37.816 24.781c0 .997-.779 1.805-1.741 1.805s-1.741-.808-1.741-1.805c0-.997.779-1.805 1.741-1.805s1.741.808 1.741 1.805zM41.876 22.375c0 .997-.779 1.805-1.741 1.805s-1.741-.808-1.741-1.805c0-.997.779-1.805 1.741-1.805s1.741.808 1.741 1.805zM36.945 29.594c0 .997-.779 1.805-1.741 1.805s-1.741-.808-1.741-1.805c0-.997.779-1.805 1.741-1.805s1.741.808 1.741 1.805zM40.716 27.187c0 .997-.779 1.805-1.741 1.805s-1.741-.808-1.741-1.805c0-.997.779-1.805 1.741-1.805s1.741.808 1.741 1.805zM45.068 24.481c0 .997-.779 1.805-1.741 1.805s-1.741-.808-1.741-1.805c0-.997.779-1.805 1.741-1.805s1.741.808 1.741 1.805zM49.129 22.074c0 .997-.779 1.805-1.741 1.805s-1.741-.808-1.741-1.805c0-.997.779-1.805 1.741-1.805s1.741.808 1.741 1.805z"/><path d="M43.617 21.773c0 .997-.779 1.805-1.741 1.805s-1.741-.808-1.741-1.805c0-.997.779-1.805 1.741-1.805s1.741.808 1.741 1.805zM47.388 19.367c0 .997-.779 1.805-1.741 1.805s-1.741-.808-1.741-1.805c0-.997.779-1.805 1.741-1.805s1.741.808 1.741 1.805zM51.74 16.66c0 .997-.779 1.805-1.741 1.805s-1.741-.808-1.741-1.805c0-.997.779-1.805 1.741-1.805s1.741.808 1.741 1.805zM55.802 14.254c0 .997-.779 1.805-1.741 1.805s-1.741-.808-1.741-1.805c0-.997.779-1.805 1.741-1.805s1.741.808 1.741 1.805z"/></symbol><symbol id="dots-md-1" viewBox="0 0 361 32"><path d="M309.949 29.706c0 .999-.789 1.808-1.762 1.808s-1.762-.809-1.762-1.808.789-1.808 1.762-1.808 1.762.809 1.762 1.808zM313.767 27.295c0 .999-.789 1.808-1.762 1.808s-1.762-.809-1.762-1.808.789-1.808 1.762-1.808 1.762.809 1.762 1.808zM318.172 24.583c0 .999-.789 1.808-1.762 1.808s-1.762-.809-1.762-1.808.789-1.808 1.762-1.808 1.762.809 1.762 1.808zM322.284 22.172c0 .999-.789 1.808-1.762 1.808s-1.762-.809-1.762-1.808.789-1.808 1.762-1.808 1.762.809 1.762 1.808zM319.935 28.5c0 .999-.789 1.808-1.762 1.808s-1.762-.809-1.762-1.808.789-1.808 1.762-1.808 1.762.809 1.762 1.808zM323.752 26.09c0 .999-.789 1.808-1.762 1.808s-1.762-.809-1.762-1.808.789-1.808 1.762-1.808 1.762.809 1.762 1.808zM328.158 23.378c0 .999-.789 1.808-1.762 1.808s-1.762-.809-1.762-1.808.789-1.808 1.762-1.808 1.762.809 1.762 1.808zM332.27 20.967c0 .999-.789 1.808-1.762 1.808s-1.762-.809-1.762-1.808.789-1.808 1.762-1.808 1.762.809 1.762 1.808zM328.452 27.596c0 .999-.789 1.808-1.762 1.808s-1.762-.809-1.762-1.808.789-1.808 1.762-1.808 1.762.809 1.762 1.808zM332.27 25.185c0 .999-.789 1.808-1.762 1.808s-1.762-.809-1.762-1.808.789-1.808 1.762-1.808 1.762.809 1.762 1.808zM336.675 22.473c0 .999-.789 1.808-1.762 1.808s-1.762-.809-1.762-1.808.789-1.808 1.762-1.808 1.762.809 1.762 1.808zM340.786 20.063c0 .999-.789 1.808-1.762 1.808s-1.762-.809-1.762-1.808.789-1.808 1.762-1.808 1.762.809 1.762 1.808zM336.675 26.391c0 .999-.789 1.808-1.762 1.808s-1.762-.809-1.762-1.808.789-1.808 1.762-1.808 1.762.809 1.762 1.808zM340.493 23.98c0 .999-.789 1.808-1.762 1.808s-1.762-.809-1.762-1.808.789-1.808 1.762-1.808 1.762.809 1.762 1.808zM344.898 21.268c0 .999-.789 1.808-1.762 1.808s-1.762-.809-1.762-1.808.789-1.808 1.762-1.808 1.762.809 1.762 1.808zM349.01 18.858c0 .999-.789 1.808-1.762 1.808s-1.762-.809-1.762-1.808.789-1.808 1.762-1.808 1.762.809 1.762 1.808zM339.318 29.706c0 .999-.789 1.808-1.762 1.808s-1.762-.809-1.762-1.808.789-1.808 1.762-1.808 1.762.809 1.762 1.808zM343.136 27.295c0 .999-.789 1.808-1.762 1.808s-1.762-.809-1.762-1.808.789-1.808 1.762-1.808 1.762.809 1.762 1.808zM348.422 30.007c0 .999-.789 1.808-1.762 1.808s-1.762-.809-1.762-1.808.789-1.808 1.762-1.808 1.762.809 1.762 1.808zM347.541 24.583c0 .999-.789 1.808-1.762 1.808s-1.762-.809-1.762-1.808.789-1.808 1.762-1.808 1.762.809 1.762 1.808zM352.828 27.295c0 .999-.789 1.808-1.762 1.808s-1.762-.809-1.762-1.808.789-1.808 1.762-1.808 1.762.809 1.762 1.808zM356.939 30.007c0 .999-.789 1.808-1.762 1.808s-1.762-.809-1.762-1.808.789-1.808 1.762-1.808 1.762.809 1.762 1.808zM351.653 22.172c0 .999-.789 1.808-1.762 1.808s-1.762-.809-1.762-1.808.789-1.808 1.762-1.808 1.762.809 1.762 1.808zM356.939 24.884c0 .999-.789 1.808-1.762 1.808s-1.762-.809-1.762-1.808.789-1.808 1.762-1.808 1.762.809 1.762 1.808zM361.051 27.596c0 .999-.789 1.808-1.762 1.808s-1.762-.809-1.762-1.808.789-1.808 1.762-1.808 1.762.809 1.762 1.808zM292.034 9.818c0 .999-.789 1.808-1.762 1.808s-1.762-.809-1.762-1.808.789-1.808 1.762-1.808 1.762.809 1.762 1.808zM295.852 7.408c0 .999-.789 1.808-1.762 1.808s-1.762-.809-1.762-1.808.789-1.808 1.762-1.808 1.762.809 1.762 1.808zM300.258 4.696c0 .999-.789 1.808-1.762 1.808s-1.762-.809-1.762-1.808.789-1.808 1.762-1.808 1.762.809 1.762 1.808zM304.368 2.285c0 .999-.789 1.808-1.762 1.808s-1.762-.809-1.762-1.808.789-1.808 1.762-1.808 1.762.809 1.762 1.808zM284.692 9.516c0 .999-.789 1.808-1.762 1.808s-1.762-.809-1.762-1.808.789-1.808 1.762-1.808 1.762.809 1.762 1.808zM288.51 7.106c0 .999-.789 1.808-1.762 1.808s-1.762-.809-1.762-1.808.789-1.808 1.762-1.808 1.762.809 1.762 1.808zM292.915 4.394c0 .999-.789 1.808-1.762 1.808s-1.762-.809-1.762-1.808.789-1.808 1.762-1.808 1.762.809 1.762 1.808zM297.027 1.984c0 .999-.789 1.808-1.762 1.808s-1.762-.809-1.762-1.808.789-1.808 1.762-1.808 1.762.809 1.762 1.808zM301.139 29.706c0 .999-.789 1.808-1.762 1.808s-1.762-.809-1.762-1.808.789-1.808 1.762-1.808 1.762.809 1.762 1.808zM304.956 27.295c0 .999-.789 1.808-1.762 1.808s-1.762-.809-1.762-1.808.789-1.808 1.762-1.808 1.762.809 1.762 1.808zM309.362 24.583c0 .999-.789 1.808-1.762 1.808s-1.762-.809-1.762-1.808.789-1.808 1.762-1.808 1.762.809 1.762 1.808zM313.474 22.172c0 .999-.789 1.808-1.762 1.808s-1.762-.809-1.762-1.808.789-1.808 1.762-1.808 1.762.809 1.762 1.808zM296.44 27.898c0 .999-.789 1.808-1.762 1.808s-1.762-.809-1.762-1.808.789-1.808 1.762-1.808 1.762.809 1.762 1.808zM300.258 25.487c0 .999-.789 1.808-1.762 1.808s-1.762-.809-1.762-1.808.789-1.808 1.762-1.808 1.762.809 1.762 1.808zM304.663 22.775c0 .999-.789 1.808-1.762 1.808s-1.762-.809-1.762-1.808.789-1.808 1.762-1.808 1.762.809 1.762 1.808zM308.775 20.365c0 .999-.789 1.808-1.762 1.808s-1.762-.809-1.762-1.808.789-1.808 1.762-1.808 1.762.809 1.762 1.808zM298.201 21.57c0 .999-.789 1.808-1.762 1.808s-1.762-.809-1.762-1.808.789-1.808 1.762-1.808 1.762.809 1.762 1.808zM302.019 19.16c0 .999-.789 1.808-1.762 1.808s-1.762-.809-1.762-1.808.789-1.808 1.762-1.808 1.762.809 1.762 1.808zM306.425 16.447c0 .999-.789 1.808-1.762 1.808s-1.762-.809-1.762-1.808.789-1.808 1.762-1.808 1.762.809 1.762 1.808zM310.536 14.037c0 .999-.789 1.808-1.762 1.808s-1.762-.809-1.762-1.808.789-1.808 1.762-1.808 1.762.809 1.762 1.808zM298.201 11.024c0 .999-.789 1.808-1.762 1.808s-1.762-.809-1.762-1.808.789-1.808 1.762-1.808 1.762.809 1.762 1.808zM302.019 8.613c0 .999-.789 1.808-1.762 1.808s-1.762-.809-1.762-1.808.789-1.808 1.762-1.808 1.762.809 1.762 1.808zM306.425 5.901c0 .999-.789 1.808-1.762 1.808s-1.762-.809-1.762-1.808.789-1.808 1.762-1.808 1.762.809 1.762 1.808zM310.536 3.49c0 .999-.789 1.808-1.762 1.808s-1.762-.809-1.762-1.808.789-1.808 1.762-1.808 1.762.809 1.762 1.808zM297.321 16.749c0 .999-.789 1.808-1.762 1.808s-1.762-.809-1.762-1.808.789-1.808 1.762-1.808 1.762.809 1.762 1.808zM301.139 14.338c0 .999-.789 1.808-1.762 1.808s-1.762-.809-1.762-1.808.789-1.808 1.762-1.808 1.762.809 1.762 1.808zM305.544 11.626c0 .999-.789 1.808-1.762 1.808s-1.762-.809-1.762-1.808.789-1.808 1.762-1.808 1.762.809 1.762 1.808zM309.656 9.216c0 .999-.789 1.808-1.762 1.808s-1.762-.809-1.762-1.808.789-1.808 1.762-1.808 1.762.809 1.762 1.808zM278.819 8.01c0 .999-.789 1.808-1.762 1.808s-1.762-.809-1.762-1.808.789-1.808 1.762-1.808 1.762.809 1.762 1.808zM282.637 5.6c0 .999-.789 1.808-1.762 1.808s-1.762-.809-1.762-1.808.789-1.808 1.762-1.808 1.762.809 1.762 1.808zM287.042 2.888c0 .999-.789 1.808-1.762 1.808s-1.762-.809-1.762-1.808.789-1.808 1.762-1.808 1.762.809 1.762 1.808z"/><path d="M284.986 9.818c.973 0 1.762-.809 1.762-1.808s-.789-1.808-1.762-1.808-1.762.809-1.762 1.808.789 1.808 1.762 1.808zM3.525 28.466c0 .999-.789 1.808-1.762 1.808S.001 29.465.001 28.466s.789-1.808 1.762-1.808 1.762.809 1.762 1.808zM7.342 26.055c0 .999-.789 1.808-1.762 1.808s-1.762-.809-1.762-1.808.789-1.808 1.762-1.808 1.762.809 1.762 1.808zM11.748 23.344c0 .999-.789 1.808-1.762 1.808s-1.762-.809-1.762-1.808.789-1.808 1.762-1.808 1.762.809 1.762 1.808zM15.859 20.933c0 .999-.789 1.808-1.762 1.808s-1.762-.809-1.762-1.808.789-1.808 1.762-1.808 1.762.809 1.762 1.808zM25.845 29.37c0 .999-.789 1.808-1.762 1.808s-1.762-.809-1.762-1.808.789-1.808 1.762-1.808 1.762.809 1.762 1.808zM29.663 26.959c0 .999-.789 1.808-1.762 1.808s-1.762-.809-1.762-1.808.789-1.808 1.762-1.808 1.762.809 1.762 1.808zM34.068 24.248c0 .999-.789 1.808-1.762 1.808s-1.762-.809-1.762-1.808.789-1.808 1.762-1.808 1.762.809 1.762 1.808zM38.179 21.837c0 .999-.789 1.808-1.762 1.808s-1.762-.809-1.762-1.808.789-1.808 1.762-1.808 1.762.809 1.762 1.808zM34.949 28.164c0 .999-.789 1.808-1.762 1.808s-1.762-.809-1.762-1.808.789-1.808 1.762-1.808 1.762.809 1.762 1.808zM38.767 25.754c0 .999-.789 1.808-1.762 1.808s-1.762-.809-1.762-1.808.789-1.808 1.762-1.808 1.762.809 1.762 1.808zM43.172 23.042c0 .999-.789 1.808-1.762 1.808s-1.762-.809-1.762-1.808.789-1.808 1.762-1.808 1.762.809 1.762 1.808zM47.284 20.631c0 .999-.789 1.808-1.762 1.808s-1.762-.809-1.762-1.808.789-1.808 1.762-1.808 1.762.809 1.762 1.808zM51.689 17.016c0 .999-.789 1.808-1.762 1.808s-1.762-.809-1.762-1.808.789-1.808 1.762-1.808 1.762.809 1.762 1.808zM42.291 19.125c0 .999-.789 1.808-1.762 1.808s-1.762-.809-1.762-1.808.789-1.808 1.762-1.808 1.762.809 1.762 1.808zM17.622 29.069c0 .999-.789 1.808-1.762 1.808s-1.762-.809-1.762-1.808.789-1.808 1.762-1.808 1.762.809 1.762 1.808zM21.44 26.658c0 .999-.789 1.808-1.762 1.808s-1.762-.809-1.762-1.808.789-1.808 1.762-1.808 1.762.809 1.762 1.808zM25.845 23.946c0 .999-.789 1.808-1.762 1.808s-1.762-.809-1.762-1.808.789-1.808 1.762-1.808 1.762.809 1.762 1.808zM29.956 21.536c0 .999-.789 1.808-1.762 1.808s-1.762-.809-1.762-1.808.789-1.808 1.762-1.808 1.762.809 1.762 1.808zM10.28 28.767c0 .999-.789 1.808-1.762 1.808s-1.762-.809-1.762-1.808.789-1.808 1.762-1.808 1.762.809 1.762 1.808zM14.097 26.356c0 .999-.789 1.808-1.762 1.808s-1.762-.809-1.762-1.808.789-1.808 1.762-1.808 1.762.809 1.762 1.808z"/><path d="M18.503 23.645c0 .999-.789 1.808-1.762 1.808s-1.762-.809-1.762-1.808.789-1.808 1.762-1.808 1.762.809 1.762 1.808zM22.614 21.234c0 .999-.789 1.808-1.762 1.808s-1.762-.809-1.762-1.808.789-1.808 1.762-1.808 1.762.809 1.762 1.808z"/></symbol></defs></svg>