<svg version="1.0" xmlns="http://www.w3.org/2000/svg" width="113.333" height="113.333" viewBox="0 0 85 85"><path d="M39.4 3.9c-1.7.9-4.9 3.5-7.1 5.9-3.2 3.3-3.9 4.8-3.5 6.9.3 1.5.1 2.4-.5 2-1.4-.9-4.3 4.6-4.9 9.5-.3 2.4-1 5.9-1.6 7.8-1.5 4.4-1.2 8.2.6 9.2.8.5 1.8 2.3 2.1 4.1 1.3 5.6 3.8 7.2 6.9 4.1 1.4-1.4 1.6-1.3 1.5.8-.2 3.9 3.3 26.2 4.4 27.5 1.3 1.7 14.1 1.7 15.5.1.6-.7 1.3-3.3 1.7-5.8.7-4.7 1.4-9.8 2-14 1.2-8.8 1.9-11.8 3.5-15 2.1-4.1 2.6-13 .8-13-.6 0-.1-1.1 1.1-2.4 1.3-1.4 2.3-3.5 2.2-4.8 0-1.3-.1-4.6-.1-7.4 0-6.1-3.5-12.1-8.7-14.9-4.4-2.4-11.9-2.7-15.9-.6z"/></svg>