<svg aria-hidden="true" style="width:0;height:0;position:absolute;overflow:hidden" xmlns="http://www.w3.org/2000/svg"><defs><symbol id="logo" viewBox="0 0 30 32"><path fill="#f8d24e" style="fill:var(--color1,#f8d24e)" d="M15.226 17.082c1.415-3.784-1.515-5.855-3.457-7.217-.371-.278-.742-.538-1.044-.776a3.627 3.627 0 0 1-1.133-1.674l-.007-.026a3.48 3.48 0 0 1-.163-1.067c0-.345.049-.679.141-.995l-.006.025a.39.39 0 0 0-.115-.395.402.402 0 0 0-.412-.08l.003-.001c-.69.273-1.285.63-1.811 1.067l.011-.009a4.272 4.272 0 0 0-1.215 1.452l-.011.024a4.115 4.115 0 0 0-.442 1.857v.001a4.977 4.977 0 0 0-.952.978l-.01.014a3.579 3.579 0 0 0-.709 2.332v-.008a4.607 4.607 0 0 0-1.276 1.945l-.009.032a4.55 4.55 0 0 0-.124 2.376l-.005-.03a1.247 1.247 0 0 0-.609 1.065c0 .12.017.237.05.347l-.002-.009c.075.262.235.493.456.657s.49.252.767.25h.026v2.151c0 .219.089.428.245.583s.369.241.591.241h.65l1.058 9.04c.022.201.118.387.271.522s.351.21.556.21h4.404c.206 0 .404-.075.557-.21s.251-.32.275-.522l1.058-9.04h.65a.844.844 0 0 0 .591-.241.817.817 0 0 0 .245-.582v-2.152h.028c.348 0 .663-.139.894-.365a1.24 1.24 0 0 0 .371-.883v-.014c0-.343-.142-.654-.371-.875l-.011.003zm-9.531-6.866c.535 1.98 2.599 2.759 4.482 3.455a.41.41 0 0 0 .493-.052.4.4 0 0 0 .124-.289l-.001-.028v.001a.393.393 0 0 0-.166-.295l-.001-.001a.402.402 0 0 0-.16-.068h-.003c-2.027-.758-3.939-1.464-4.084-3.488a3.32 3.32 0 0 1 .318-1.639l-.009.02a3.417 3.417 0 0 1 1.038-1.277l.009-.006c.283-.231.586-.438.906-.615a4.491 4.491 0 0 0 .002.779l-.001-.017c.047.615.216 1.181.484 1.686l-.011-.023c.281.531.648.98 1.087 1.343l.007.006c.308.26.691.527 1.114.812.977.692 2.087 1.465 2.792 2.511.441.619.704 1.39.704 2.223 0 .538-.11 1.051-.309 1.517l.01-.025h-1.641c-3.382 0-7.27-.922-8.038-3.506a2.94 2.94 0 0 1 .009-1.646l-.005.021a2.968 2.968 0 0 1 .87-1.377l.003-.003-.019-.018zM8.74 22.693l1.24 1.222-1.241 1.222-1.24-1.23 1.24-1.215zm2.844 3.21-1.025 1.01-1.24-1.222 1.241-1.219 1.076 1.057-.052.374zM8.74 28.706l-1.241-1.222 1.241-1.222 1.24 1.222-1.241 1.222zm-.568-3.008L6.931 26.92l-1.032-1.018-.044-.366 1.077-1.057 1.24 1.219zM6.36 27.484l-.249.245-.063-.556.312.311zm-.13 1.251.702-.692 1.363 1.354a.763.763 0 0 0 .026.081H6.316l-.086-.743zm4.322-.691.702.692-.086.732h-2.06l1.444-1.424zm.816-.315-.249-.245.316-.311-.067.556zm.372-3.199-.62-.622.787-.776-.167 1.398zm-1.192-1.178-1.177-1.156h2.354l-1.177 1.157zm-3.62 0-1.177-1.156h2.354l-1.177 1.157zm4.01 7.817h-4.4a.03.03 0 0 1-.026-.025l-.104-.879h4.664l-.1.879a.03.03 0 0 1-.029.026h-.003zm3.405-12.751h-1.292a.406.406 0 0 0-.311.102.392.392 0 0 0 0 .59.403.403 0 0 0 .271.103l.042-.002h-.002.46v2.152a.032.032 0 0 1-.01.019.032.032 0 0 1-.019.007H3.986a.032.032 0 0 1-.019-.007.032.032 0 0 1-.01-.019v-2.152h7.355a.408.408 0 0 0 .261-.129.394.394 0 0 0 0-.537.402.402 0 0 0-.259-.128h-8.17a.467.467 0 0 1-.353-.117.453.453 0 0 1-.15-.335v-.001c0-.133.058-.252.149-.334a.462.462 0 0 1 .31-.119l.044.002h-.002.843a.408.408 0 0 0 .261-.129.394.394 0 0 0 0-.537.408.408 0 0 0-.259-.129h-.744a3.919 3.919 0 0 1 .056-1.707l-.006.027c.15-.579.412-1.083.764-1.511l-.005.007c.26.798.928 1.889 2.599 2.756 1.57.808 3.65 1.222 6.178 1.222h1.485a.462.462 0 0 1 .352.117.453.453 0 0 1 .15.335v.001a.449.449 0 0 1-.149.334.462.462 0 0 1-.31.119l-.044-.002h.028z"/><path fill="#f8d24e" style="fill:var(--color1,#f8d24e)" d="m16.964 29.152-.293.448.006.004.287-.453zm3.149.152.535-.012-.014-.62-.611.104.09.528zm.037 1.647.136.518.409-.108-.01-.422-.535.012zm-4.133.079.121-.522-.003-.001-.117.523zm-2.039-.911.347-.409h-.001l-.346.409zm-.738-1.673.536.003v-.003h-.536zm.256-1.172-.48-.236v.001l.48.235zm1.642-1.402.19.501.002-.001-.192-.5zm5.263-.136.534.041.035-.452-.44-.109-.129.52zm-.131 1.679-.099.526.587.111.046-.596-.534-.042zm-1.428-.687c-.804 0-1.48.086-1.973.303a1.616 1.616 0 0 0-.651.489 1.253 1.253 0 0 0-.255.76v.015-.001h1.071v-.013c0-.043.014-.083.038-.115a.57.57 0 0 1 .228-.156c.288-.127.783-.212 1.542-.212v-1.072zm-2.879 1.566c0 .551.247 1.006.709 1.307l.585-.897a.433.433 0 0 1-.223-.409h-1.071zm.714 1.31c.438.277 1.015.381 1.663.381v-1.071c-.559 0-.899-.095-1.089-.215l-.574.905zm1.663.381c.635 0 1.256-.051 1.863-.154l-.179-1.056c-.5.088-1.077.139-1.665.139h-.02.001v1.071zm1.238-.67.036 1.648 1.071-.024-.037-1.647-1.071.024zm.435 1.118a7.964 7.964 0 0 1-2.029.244v1.071c.821 0 1.589-.092 2.302-.279l-.273-1.036zm-2.029.244c-.757 0-1.369-.06-1.846-.169l-.241 1.044c.582.134 1.281.197 2.087.197v-1.071zm-1.85-.17c-.511-.114-.881-.236-1.127-.356l-.47.962c.353.172.814.316 1.363.439l.234-1.046zm-1.126-.356a3.264 3.264 0 0 1-.688-.444l.005.004-.693.817c.263.222.561.417.881.574l.026.011.47-.962zm-.685-.441c-.364-.308-.55-.709-.547-1.262l-1.071-.005c-.004.842.301 1.556.927 2.085l.692-.818zm-.547-1.264c0-.36.07-.669.202-.936l-.962-.471c-.211.43-.311.902-.311 1.407h1.071zm.201-.936c.243-.495.673-.88 1.351-1.137l-.38-1.002c-.884.336-1.549.886-1.933 1.666l.961.473zm1.354-1.138c.712-.273 1.507-.414 2.392-.414v-1.071c-.999 0-1.926.159-2.776.485l.384 1zm2.392-.414c.901 0 1.751.1 2.549.298l.258-1.04c-.89-.221-1.826-.33-2.807-.33v1.071zm2.144-.263-.13 1.679 1.068.084.131-1.679-1.068-.083zm.503 1.194a8.343 8.343 0 0 0-1.528-.161v1.071c.377 0 .818.046 1.328.142l.199-1.053zm5.226.855-.003.536.544.003-.005-.544-.536.005zm-.23-.695-.364.393.005.004.359-.397zm-1.334.053.371.386.004-.004-.375-.383zm-.324.632-.529-.087-.101.619.627.003.003-.536zm3.938 2.856.324.427.192-.146.018-.241-.534-.039zm-1.156.429-.115-.523h-.003l.118.523zm-4.017-.146-.182.504.004.001.178-.505zm-.915-.487-.332.42.003.002.003.002.326-.425zm-.612-.769-.48.237.001.002.479-.24zm.627-3.248zm4.896-.581.214-.49-.005-.002-.209.493zm1.23 1.13-.482.234.001.003.48-.237zm.209.937.534.038.001-.019v-.02h-.536zm-.063.863-.002.536.501.002.036-.499-.534-.039zm-4.242-.021.003-.536-.699-.003.178.676.518-.137zm.607.748-.263.466.002.001.261-.468zm3.253-.183v-.536h-.107l-.098.041.206.495zm.282 0 .534.039.043-.575h-.577v.536zm-1.613-1.523c-.004-.387-.094-.803-.406-1.087l-.72.794c-.006-.005.006.001.021.047a.87.87 0 0 1 .033.257l1.071-.011zm-.402-1.082c-.281-.261-.65-.347-1.013-.347v1.071c.208 0 .272.05.284.061l.729-.785zm-1.013-.348c-.399 0-.77.125-1.06.409l.75.766c.059-.058.144-.103.31-.103v-1.072zm-1.056.406a1.63 1.63 0 0 0-.481.923l-.001.009 1.057.174a.568.568 0 0 1 .166-.334l-.742-.773zm.044 1.555 1.889.01.006-1.071-1.889-.011-.006 1.071zm3.618 1.893c-.118.089-.404.213-.948.333l.23 1.046c.565-.125 1.05-.287 1.365-.525l-.647-.854zm-.951.334a6.544 6.544 0 0 1-1.496.175h-.002v1.071c.566 0 1.145-.068 1.735-.202l-.236-1.045zm-1.498.175c-.505 0-.921-.024-1.252-.068l-.143 1.062c.394.053.861.078 1.395.078v-1.071zm-1.252-.069a4.79 4.79 0 0 1-1.004-.247l.034.011-.357 1.01a5.96 5.96 0 0 0 1.184.288l.143-1.062zm-.966-.234a2.82 2.82 0 0 1-.772-.408l-.652.85c.305.234.661.42 1.058.565l.365-1.007zm-.766-.403a1.726 1.726 0 0 1-.461-.578l-.004-.01-.958.479c.186.377.442.694.753.945l.005.004.666-.84zm-.464-.586c-.113-.228-.18-.521-.18-.897h-1.071c0 .502.09.965.29 1.372l.96-.475zm-.18-.898c0-.377.068-.71.196-1.006l-.983-.426a3.57 3.57 0 0 0-.285 1.432h1.071zm.196-1.005c.135-.311.3-.542.487-.707l-.713-.8a3.036 3.036 0 0 0-.757 1.082l.983.426zm.488-.708c.576-.513 1.454-.811 2.719-.811v-1.071c-1.419 0-2.591.333-3.432 1.083l.713.799zm2.719-.811a4.08 4.08 0 0 1 1.611.323l.418-.986a5.069 5.069 0 0 0-2.01-.409h-.021.001v1.071zm1.606.321c.474.207.78.5.961.873l.963-.468c-.307-.632-.82-1.092-1.497-1.387l-.428.982zm.963.877c.1.202.154.432.154.699h1.071c0-.417-.086-.811-.265-1.174l-.96.474zm.156.659-.063.863 1.068.078.063-.863-1.068-.077zm.474.367-4.242-.021-.005 1.071 4.242.021.005-1.071zm-4.763.651c.126.475.432.834.862 1.078l.527-.933c-.212-.12-.31-.258-.352-.418l-1.036.274zm.863 1.079c.434.243.978.34 1.585.34v-1.071c-.509 0-.848-.084-1.062-.204l-.523.935zm1.585.34c.651 0 1.367-.176 2.136-.496l-.412-.989c-.688.287-1.26.414-1.724.414v1.071zm1.93-.455h.283v-1.071h-.282v1.071zm-.251-.576-.1 1.329 1.068.08.099-1.329-1.068-.08z"/></symbol><symbol id="face-green" viewBox="0 0 35 32"><path fill="#fff" style="fill:var(--color2,#fff)" d="M12.353 17.514c1.267.696 3.265-.337 4.462-2.306s1.142-4.129-.125-4.825c-1.267-.696-3.265.337-4.462 2.306s-1.142 4.13.125 4.825z"/><path style="fill:var(--color3,#000)" d="M16.593 10.543c1.152.633 1.178 2.727.055 4.573s-3.045 2.871-4.197 2.238c-1.152-.633-1.178-2.727-.055-4.573s3.046-2.871 4.197-2.238zm.194-.319c-1.359-.747-3.476.316-4.727 2.373s-1.163 4.331.196 5.077c1.359.747 3.476-.316 4.727-2.373s1.165-4.33-.196-5.077z"/><path fill="#fff" style="fill:var(--color2,#fff)" d="M20.081 21.754c1.267.696 3.265-.337 4.462-2.306s1.142-4.129-.125-4.825c-1.267-.696-3.265.337-4.462 2.306s-1.142 4.129.125 4.825z"/><path style="fill:var(--color3,#000)" d="M24.321 14.783c1.152.633 1.178 2.727.055 4.573s-3.045 2.871-4.197 2.238c-1.152-.633-1.178-2.727-.055-4.573s3.046-2.871 4.197-2.238zm.194-.319c-1.36-.747-3.476.316-4.727 2.373s-1.163 4.331.196 5.077c1.359.747 3.476-.316 4.727-2.373s1.165-4.33-.196-5.077zm-11.062 1.241c.711.39 1.823-.175 2.484-1.262s.621-2.285-.089-2.676c-.711-.39-1.823.175-2.484 1.262s-.621 2.285.089 2.676z"/><path style="fill:var(--color3,#000)" d="M15.816 11.82c.679.373.708 1.535.066 2.592s-1.717 1.613-2.396 1.24c-.679-.373-.708-1.535-.066-2.592s1.718-1.612 2.396-1.24zm.064-.106c-.742-.407-1.894.168-2.573 1.285s-.629 2.352.113 2.76c.742.408 1.894-.168 2.573-1.285s.629-2.352-.113-2.76zm5.301 8.231c.711.39 1.823-.175 2.484-1.262s.621-2.285-.089-2.676c-.711-.39-1.823.175-2.484 1.262s-.621 2.285.089 2.676z"/><path style="fill:var(--color3,#000)" d="M23.544 16.06c.679.373.708 1.535.066 2.592s-1.717 1.613-2.396 1.24c-.679-.373-.708-1.535-.066-2.592s1.718-1.612 2.396-1.24zm.064-.106c-.742-.407-1.894.168-2.573 1.285s-.629 2.352.113 2.76c.742.407 1.894-.168 2.573-1.285s.629-2.352-.113-2.76z"/><path fill="#fff" style="fill:var(--color2,#fff)" d="M14.978 14.2c.428.235 1.035-.004 1.357-.533s.236-1.148-.192-1.383c-.428-.235-1.035.004-1.357.533s-.236 1.148.192 1.383zm7.728 4.24c.428.235 1.035-.004 1.357-.533s.236-1.148-.192-1.383c-.428-.235-1.035.004-1.357.533s-.236 1.148.192 1.383z"/><path style="fill:var(--color3,#000)" d="M15.614 7.608c1.426.096 2.721.811 3.522 1.936.279.391.956.027.676-.366-.967-1.359-2.477-2.193-4.201-2.309-.497-.034-.494.706.003.739zm8.064 4.424c1.426.096 2.721.81 3.522 1.936.279.391.956.027.676-.366-.967-1.359-2.477-2.193-4.201-2.309-.498-.034-.494.706.003.739z"/><path fill="none" stroke="#000" style="stroke:var(--color3,#000)" stroke-miterlimit="10" stroke-width=".464" d="M13.398 24.401c-5.784-3.173-8.851-8.414-6.851-11.706m20.944 11.491c-2 3.292-8.31 3.388-14.093.215M5.153 12.286l2.917.607m18.622 10.642 1.663 1.196"/></symbol><symbol id="face-pink" viewBox="0 0 34 32"><path fill="#fff" style="fill:var(--color2,#fff)" d="M12.317 16.245c1.17.781 3.208-.06 4.552-1.878s1.485-3.925.315-4.706c-1.17-.781-3.208.06-4.552 1.878s-1.485 3.925-.315 4.706z"/><path style="fill:var(--color3,#000)" d="M17.075 9.808c1.064.71.899 2.75-.361 4.455s-3.223 2.545-4.288 1.834c-1.064-.711-.899-2.75.361-4.455s3.224-2.544 4.288-1.834zm.217-.295c-1.256-.838-3.412.023-4.816 1.922s-1.524 4.119-.269 4.957c1.256.838 3.412-.023 4.816-1.922s1.525-4.118.269-4.957z"/><path fill="#fff" style="fill:var(--color2,#fff)" d="M19.453 21.004c1.17.781 3.208-.06 4.552-1.878s1.485-3.925.315-4.706c-1.17-.781-3.208.06-4.552 1.878s-1.485 3.925-.315 4.706z"/><path style="fill:var(--color3,#000)" d="M24.211 14.568c1.064.71.899 2.75-.361 4.455s-3.223 2.545-4.288 1.834c-1.065-.71-.899-2.75.361-4.455s3.224-2.544 4.288-1.834zm.218-.295c-1.256-.838-3.412.022-4.816 1.922s-1.524 4.119-.269 4.957 3.412-.022 4.816-1.922 1.525-4.118.269-4.957zm-9.738-.406c.656.438 1.79-.021 2.532-1.025s.812-2.173.155-2.611c-.656-.438-1.79.021-2.532 1.025s-.812 2.173-.155 2.611z"/><path style="fill:var(--color3,#000)" d="M17.343 10.281c.627.419.551 1.552-.171 2.528s-1.817 1.429-2.444 1.01-.551-1.552.171-2.528c.721-.976 1.818-1.428 2.444-1.01zm.072-.099c-.685-.457-1.858.009-2.62 1.04s-.825 2.238-.14 2.695c.685.457 1.858-.009 2.62-1.04s.825-2.238.14-2.695zm4.516 8.514c.656.438 1.79-.021 2.532-1.025s.812-2.173.155-2.611c-.656-.438-1.79.021-2.532 1.025s-.812 2.173-.155 2.611z"/><path style="fill:var(--color3,#000)" d="M24.582 15.109c.627.419.551 1.552-.171 2.528s-1.817 1.429-2.444 1.01c-.627-.419-.551-1.552.171-2.528s1.818-1.428 2.444-1.01zm.073-.098c-.685-.457-1.858.009-2.62 1.039s-.825 2.238-.14 2.695c.685.457 1.858-.009 2.62-1.04s.825-2.238.14-2.695z"/><path fill="#fff" style="fill:var(--color2,#fff)" d="M14.339 13.412c.307.205.784.063 1.065-.317s.259-.854-.048-1.059c-.307-.205-.784-.063-1.064.317s-.26.854.047 1.059zm7.271 4.996c.307.205.784.063 1.064-.317s.26-.854-.047-1.059c-.307-.205-.784-.063-1.065.317s-.259.854.048 1.059z"/><path style="fill:var(--color3,#000)" d="M16.142 6.868c1.447.049 2.734.706 3.587 1.816.288.375.873-.086.587-.459-.964-1.256-2.473-2.019-4.109-2.075-.487-.016-.555.703-.065.718zm8.411 4.876c1.364.467 2.371 1.472 2.828 2.774.155.44.843.135.69-.301-.519-1.478-1.723-2.627-3.262-3.153-.459-.156-.717.522-.256.68z"/><path fill="none" stroke="#000" style="stroke:var(--color3,#000)" stroke-miterlimit="10" stroke-width=".434" d="M12.429 22.993c-5.341-3.562-7.85-8.913-5.605-11.953m19.34 12.899c-2.245 3.04-8.394 2.616-13.735-.946M5.505 10.527l2.783.829M25.445 23.24l1.51 1.3"/><path style="fill:var(--color3,#000);stroke:var(--color3,#000)" stroke="#000" stroke-miterlimit="10" stroke-width=".434" d="M12.595 23.385c.463-.352.343-1.225-.267-1.95s-1.481-1.026-1.944-.674c-.463.352-.343 1.225.267 1.95s1.481 1.027 1.944.674z"/><path style="fill:var(--color3,#000);stroke:var(--color3,#000)" stroke="#000" stroke-miterlimit="10" stroke-width=".434" d="M12.091 23.868c.942.629 1.788 1.028 1.888.892s-.583-.755-1.525-1.384-1.788-1.028-1.888-.892c-.1.136.583.755 1.525 1.384z"/><path style="fill:var(--color3,#000);stroke:var(--color3,#000)" stroke="#000" stroke-miterlimit="10" stroke-width=".434" d="M13.63 24.725c.889.384 1.809.279 2.055-.234s-.277-1.24-1.166-1.624c-.889-.384-1.809-.279-2.055.234s.277 1.24 1.166 1.624z"/></symbol><symbol id="face-yellow" viewBox="0 0 35 32"><path fill="#fff" style="fill:var(--color2,#fff)" d="M13.369 21.857c1.491-.477 2.034-2.742 1.213-5.059s-2.695-3.809-4.185-3.332c-1.491.477-2.034 2.742-1.213 5.059s2.695 3.809 4.185 3.332z"/><path style="fill:var(--color3,#000)" d="M10.464 13.653c1.356-.434 3.151 1.035 3.921 3.208s.274 4.374-1.082 4.808c-1.356.434-3.151-1.035-3.921-3.208s-.273-4.375 1.082-4.808zm-.133-.375c-1.6.512-2.201 2.889-1.344 5.31s2.85 3.969 4.449 3.457c1.6-.512 2.201-2.889 1.344-5.31s-2.848-3.969-4.449-3.457z"/><path fill="#fff" style="fill:var(--color2,#fff)" d="M22.462 18.953c1.491-.477 2.034-2.742 1.213-5.059s-2.694-3.809-4.185-3.332c-1.491.477-2.034 2.742-1.213 5.059s2.695 3.809 4.185 3.333z"/><path style="fill:var(--color3,#000)" d="M19.557 10.75c1.356-.434 3.151 1.035 3.921 3.208s.274 4.374-1.082 4.808c-1.356.434-3.151-1.035-3.921-3.208s-.273-4.375 1.082-4.808zm-.133-.376c-1.6.512-2.201 2.889-1.344 5.31s2.85 3.969 4.449 3.457c1.6-.512 2.201-2.889 1.344-5.31s-2.848-3.969-4.449-3.457zm-6.809 9.354c.836-.267 1.147-1.522.693-2.801s-1.499-2.1-2.335-1.833c-.836.268-1.147 1.522-.693 2.801s1.499 2.1 2.335 1.833z"/><path style="fill:var(--color3,#000)" d="M10.996 15.156c.799-.256 1.806.547 2.247 1.791s.149 2.462-.65 2.718c-.799.256-1.806-.547-2.247-1.791s-.148-2.462.65-2.718zm-.044-.125c-.873.279-1.202 1.571-.737 2.885s1.55 2.154 2.423 1.874c.873-.279 1.203-1.571.737-2.885s-1.55-2.154-2.423-1.874zm10.757 1.793c.836-.267 1.147-1.522.693-2.801s-1.499-2.1-2.335-1.833c-.836.267-1.147 1.522-.693 2.801s1.499 2.1 2.335 1.833z"/><path style="fill:var(--color3,#000)" d="M20.089 12.253c.799-.256 1.806.547 2.247 1.791s.149 2.462-.65 2.718c-.799.256-1.806-.547-2.247-1.791s-.148-2.462.65-2.718zm-.044-.126c-.873.279-1.202 1.571-.737 2.885s1.55 2.154 2.423 1.874c.873-.279 1.202-1.571.737-2.885s-1.55-2.154-2.423-1.875z"/><path fill="#fff" style="fill:var(--color2,#fff)" d="M11.191 17.743c.503-.161.732-.796.512-1.419s-.807-.997-1.31-.836c-.503.161-.732.796-.512 1.419s.807.997 1.311.836zm9.005-3.154c.503-.161.732-.796.512-1.419s-.807-.997-1.31-.836c-.503.161-.733.796-.512 1.419s.807.997 1.311.836z"/><path style="fill:var(--color3,#000)" d="M7.962 11.966c.221-.762.614-1.546 1.418-1.878.748-.308 1.588-.115 2.309.176.493.2.866-.511.37-.711-.959-.389-2.059-.604-3.047-.181-1.04.445-1.577 1.433-1.867 2.432-.143.494.674.652.817.162zm9.591-3.849a13.19 13.19 0 0 0 6.191-.814c.493-.193.23-.949-.267-.754a12.316 12.316 0 0 1-5.756.789c-.531-.058-.702.72-.168.778z"/><path fill="none" stroke="#000" style="stroke:var(--color3,#000)" stroke-miterlimit="10" stroke-width=".585" d="M20.568 26.874c-6.805 2.173-13.432.795-14.802-3.078m24.644-7.87c1.37 3.873-3.037 8.774-9.842 10.947M4.427 24.572l2.589-1.803m22.273-6.694 2.197-.423"/></symbol><symbol id="yellow-ellipse" viewBox="0 0 32 32"><path fill="#f8d24e" style="fill:var(--color1,#f8d24e)" d="M30.681 15.966c0 8.489-6.456 15.37-14.42 15.37s-14.42-6.881-14.42-15.37c0-8.489 6.456-15.37 14.42-15.37s14.42 6.881 14.42 15.37z"/></symbol><symbol id="ellipse-bundle" viewBox="0 0 100 32"><path fill="#f8d24e" style="fill:var(--color1,#f8d24e)" d="M45.691 25.73c0 .287-.218.519-.487.519s-.487-.232-.487-.519c0-.287.218-.519.487-.519s.487.232.487.519zM46.827 25.038c0 .287-.218.519-.487.519s-.487-.232-.487-.519c0-.287.218-.519.487-.519s.487.232.487.519zM44.798 27.633c0 .287-.218.519-.487.519s-.487-.232-.487-.519c0-.287.218-.519.487-.519s.487.232.487.519zM45.853 26.941c0 .287-.218.519-.487.519s-.487-.232-.487-.519c0-.287.218-.519.487-.519s.487.232.487.519zM47.07 26.163c0 .287-.218.519-.487.519s-.487-.232-.487-.519c0-.287.218-.519.487-.519s.487.232.487.519zM48.206 25.471c0 .287-.218.519-.487.519s-.487-.232-.487-.519c0-.287.218-.519.487-.519s.487.232.487.519z"/><path fill="#f8d24e" style="fill:var(--color1,#f8d24e)" d="M46.583 27.72c0 .287-.218.519-.487.519s-.487-.232-.487-.519c0-.287.218-.519.487-.519s.487.232.487.519zM47.638 27.028c0 .287-.218.519-.487.519s-.487-.232-.487-.519c0-.287.218-.519.487-.519s.487.232.487.519zM48.856 26.249c0 .287-.218.519-.487.519s-.487-.232-.487-.519c0-.287.218-.519.487-.519s.487.232.487.519zM49.992 25.557c0 .287-.218.519-.487.519s-.487-.232-.487-.519c0-.287.218-.519.487-.519s.487.232.487.519zM48.693 27.72c0 .287-.218.519-.487.519s-.487-.232-.487-.519c0-.287.218-.519.487-.519s.487.232.487.519zM49.748 27.028c0 .287-.218.519-.487.519s-.487-.232-.487-.519c0-.287.218-.519.487-.519s.487.232.487.519zM50.966 26.249c0 .287-.218.519-.487.519s-.487-.232-.487-.519c0-.287.218-.519.487-.519s.487.232.487.519zM52.102 25.557c0 .287-.218.519-.487.519s-.487-.232-.487-.519c0-.287.218-.519.487-.519s.487.232.487.519z"/><path fill="#f8d24e" style="fill:var(--color1,#f8d24e)" d="M50.479 27.633c0 .287-.218.519-.487.519s-.487-.232-.487-.519c0-.287.218-.519.487-.519s.487.232.487.519zM51.534 26.941c0 .287-.218.519-.487.519s-.487-.232-.487-.519c0-.287.218-.519.487-.519s.487.232.487.519zM52.751 26.163c0 .287-.218.519-.487.519s-.487-.232-.487-.519c0-.287.218-.519.487-.519s.487.232.487.519zM53.887 25.471c0 .287-.218.519-.487.519s-.487-.232-.487-.519c0-.287.218-.519.487-.519s.487.232.487.519zM52.508 27.547c0 .287-.218.519-.487.519s-.487-.232-.487-.519c0-.287.218-.519.487-.519s.487.232.487.519zM53.563 26.855c0 .287-.218.519-.487.519s-.487-.232-.487-.519c0-.287.218-.519.487-.519s.487.232.487.519zM54.78 26.076c0 .287-.218.519-.487.519s-.487-.232-.487-.519c0-.287.218-.519.487-.519s.487.232.487.519zM55.916 25.384c0 .287-.218.519-.487.519s-.487-.232-.487-.519c0-.287.218-.519.487-.519s.487.232.487.519z"/><path fill="#f8d24e" style="fill:var(--color1,#f8d24e)" d="M54.374 25.298c0 .287-.218.519-.487.519s-.487-.232-.487-.519c0-.287.218-.519.487-.519s.487.232.487.519zM55.429 24.606c0 .287-.218.519-.487.519s-.487-.232-.487-.519c0-.287.218-.519.487-.519s.487.232.487.519zM56.647 23.827c0 .287-.218.519-.487.519s-.487-.232-.487-.519c0-.287.218-.519.487-.519s.487.232.487.519zM57.783 23.135c0 .287-.218.519-.487.519s-.487-.232-.487-.519c0-.287.218-.519.487-.519s.487.232.487.519z"/></symbol><symbol id="arrow" viewBox="0 0 82 32"><path d="M81.414 17.414a2 2 0 0 0 0-2.828L68.686 1.858a2 2 0 1 0-2.828 2.829l11.314 11.314-11.314 11.314a2 2 0 1 0 2.828 2.828l12.728-12.728zM0 18h80v-4H0v4z"/></symbol><symbol id="btn-arrow" viewBox="0 0 22 32"><path stroke-linejoin="round" stroke-linecap="round" stroke-width="6.4" d="M3.2 3.2 19.034 16 3.2 28.8"/></symbol><symbol id="btn-arrow2" viewBox="0 0 32 32"><path stroke-linejoin="round" stroke-linecap="round" stroke-width="5.333" d="M10.667 5.333 23.867 16l-13.2 10.667"/></symbol><symbol id="btn-arrow3" viewBox="0 0 32 32"><path stroke-linejoin="round" stroke-linecap="round" stroke-width="5.333" d="M10.667 5.333 23.867 16l-13.2 10.667"/></symbol><symbol id="cow" viewBox="0 0 31 32"><path d="M6.002.778c-.254.219-.98 1.732-1.24 2.558-.31 1.024-.415 1.792-.374 2.851.056 1.514.437 2.662 1.275 3.861.219.315.395.585.395.607 0 .015-.134.029-.303.029-.726 0-2.086.241-3.128.555C.972 11.736 0 12.606 0 13.579c0 .343.31.928.641 1.228.641.578 2.043 1.126 3.55 1.389.521.095 2.071.256 2.416.264.063 0 .085.336.085 1.44 0 .951.035 1.689.106 2.142.253 1.623 1.042 3.342 2.084 4.555l.36.417-.24.387c-.352.548-.486.965-.528 1.586-.106 1.492.823 2.815 2.621 3.744 3.422 1.776 8.741 1.082 10.735-1.404.972-1.214 1.085-2.603.317-3.861l-.24-.388.43-.519c.803-.965 1.324-1.93 1.718-3.152.331-1.038.458-2.04.458-3.626 0-.724.021-1.323.056-1.323.324-.008 1.881-.176 2.374-.264 1.514-.263 2.889-.804 3.55-1.389.331-.3.641-.885.641-1.228 0-1.083-1.098-1.96-3.142-2.486-.669-.176-1.93-.387-2.543-.424l-.289-.023.317-.438c.394-.534.887-1.571 1.078-2.252.535-1.967.204-4.255-.944-6.441-.48-.905-.811-1.117-1.198-.759-.148.138-.212.329-.352 1.016-.437 2.186-1.247 3.92-2.43 5.199l-.521.571H9.966l-.465-.505c-1.155-1.271-1.994-3.07-2.43-5.264-.141-.688-.204-.877-.352-1.016-.233-.212-.458-.205-.718.022zm.901 4.336c.374.819.839 1.586 1.387 2.295l.437.563-.457.344c-.43.329-.831.797-1.142 1.33l-.133.242-.338-.461c-1.155-1.594-1.444-3.546-.831-5.571.296-.98.289-.973.556-.125.127.409.367 1.031.521 1.382zm18.335-1.543c.255.709.403 1.526.403 2.378l-.001.09v-.005c0 1.331-.352 2.456-1.091 3.465l-.331.453-.247-.417a4.425 4.425 0 0 0-1.22-1.344l-.013-.009c-.19-.124-.337-.248-.337-.263 0-.022.133-.19.303-.373.782-.87 1.62-2.435 2.036-3.779.126-.418.253-.761.274-.761s.127.256.225.562zM21.64 8.916c.782.329 1.528 1.271 1.648 2.069.063.439.211.717.401.761.085.015.669.066 1.296.109 2.225.147 3.979.622 4.727 1.272.345.307.31.563-.105.878-.831.629-2.627 1.104-4.459 1.185-1.212.051-1.465.086-1.628.255-.119.125-.133.256-.133 1.579 0 1.792-.092 2.823-.317 3.656-.317 1.133-.944 2.34-1.676 3.196l-.303.351-.627-.373a7.624 7.624 0 0 0-2.272-.933l-.053-.01c-2.67-.636-5.622-.248-7.607 1.002l-.458.292-.289-.343c-.394-.461-1.014-1.448-1.261-2.003-.542-1.258-.704-2.282-.704-4.534 0-2.186.112-2.026-1.507-2.113-2.071-.11-3.65-.483-4.643-1.111-.733-.468-.612-.885.409-1.375.979-.476 2.324-.76 4.191-.877 1.451-.095 1.486-.117 1.62-.819.197-1.06.979-1.937 1.966-2.216.246-.073 1.627-.087 5.853-.08l5.53.014.401.169zm-3.96 15.135c1.726.424 3.015 1.213 3.572 2.193.134.227.19.461.218.819.029.446.008.555-.162.921-.782 1.661-3.656 2.756-6.579 2.508-3.515-.292-5.826-2.252-4.917-4.175.493-1.038 2.162-2.032 3.923-2.326.289-.043.578-.095.634-.11s.691-.015 1.41 0c.978.023 1.45.066 1.901.169z"/><path d="M10.693 12.579c-.437.147-.733.337-1.127.732-.346.329-.374.716-.085.95.268.219.521.19.845-.095.409-.359.726-.505 1.121-.505.394-.007.697.132 1.119.505.324.285.578.314.846.095.141-.118.183-.212.183-.432 0-.226-.049-.329-.297-.577-.697-.702-1.732-.972-2.606-.673zm8.213-.007c-.45.168-1.028.548-1.26.833-.226.278-.233.592 0 .827.232.248.514.233.852-.044.831-.688 1.451-.709 2.219-.073.197.169.422.3.493.3.345 0 .627-.307.627-.673 0-.233-.585-.775-1.113-1.031-.585-.285-1.282-.336-1.817-.138zm-7.191 13.534c-.204.197-.275.483-.169.709.078.183.197.256.683.387.219.058.31.131.387.314.099.242.106.242.649.264l.542.022v-.205c-.007-.292-.169-.716-.381-1.008-.246-.337-.676-.556-1.162-.6-.331-.029-.415-.015-.549.118zm6.727-.052c-.352.095-.859.571-1 .943-.07.196-.118.423-.134.658v.008c-.014.314.014.387.183.541.415.365.965.08.965-.505 0-.285.211-.483.585-.555.394-.073.535-.233.542-.607 0-.489-.437-.68-1.142-.483z"/></symbol><symbol id="ice-cream-cone" viewBox="0 0 32 32"><path d="M16.108.107c.08.215.241 1.252.241 1.573v.011c0 .818-.318 1.561-.838 2.114l.001-.002c-.449.482-.898.749-1.975 1.185-1.198.489-1.694.783-2.256 1.339-.569.569-.904 1.191-1.024 1.922-.134.796 0 1.358.408 1.68l.207.16-.328.208c-.662.436-1.867 1.46-2.075 1.774-.402.603-.362 1.164.093 1.393l.214.107-.241.228c-.362.341-.436.576-.382 1.191.034.409.02.63-.073.964-.114.436-.114.442.033.75.148.301.563.683.938.844.18.08.187.107.228.723.02.356.053 1.486.08 2.517.02 1.031.068 1.975.107 2.089.034.12.161.281.276.361.388.268.656.556.829.891.195.382.409 1.319 1.058 4.559l.455 2.276.282.268c.535.529 1.56.77 3.247.77 1.693 0 2.704-.235 3.24-.764l.288-.274.414-2.109c.916-4.612.997-4.867 1.714-5.436.22-.181.436-.402.475-.502.047-.114.094-.991.127-2.316.027-1.178.068-2.343.094-2.591l.04-.448.436-.329c.548-.421.763-.803.763-1.392-.006-.696-.462-1.46-1.292-2.142l-.396-.321.195-.276c.81-1.117.301-2.664-1.205-3.694l-.455-.315.167-.174c.743-.796.864-3.173.241-4.827-.374-.984-1.232-2.055-2.283-2.845-.514-.388-1.934-1.245-2.06-1.245-.027 0-.027.047-.006.107zm1.928 2.337c.356.348.783.823.951 1.064.997 1.393 1.252 3.14.649 4.426-.241.522-.964 1.298-1.634 1.76-1.024.71-3.327 1.902-4.933 2.557-2.584 1.052-4.084 1.252-4.258.563-.068-.261.127-.468.951-1.018.742-.508 4.076-2.986 4.136-3.086.02-.027-.321.127-.749.341-1.452.737-2.142.596-2.108-.428.02-.743.556-1.587 1.298-2.068.188-.12.771-.388 1.307-.603 1.76-.709 2.296-1.071 2.892-1.961.356-.529.743-1.507.77-1.922.007-.147.034-.261.053-.261s.322.288.676.636zm1.827 7.606c.489.274.997.743 1.218 1.111.389.662.188 1.325-.649 2.169-.91.924-2.463 1.808-4.171 2.37-1.573.516-3.079.756-5.236.83l-1.339.047.871.053c1.124.074 3.3.007 4.143-.127 2.243-.356 4.151-1.065 5.516-2.042.308-.221.629-.402.716-.402.221 0 1.185.924 1.38 1.312.107.221.133.382.114.596-.1.891-1.186 1.366-3.803 1.68-3.2.382-7.384.007-9.172-.816-.844-.388-.984-.61-.77-1.198.067-.188.08-.409.053-.724-.034-.415-.027-.468.12-.622.335-.362.898-.569 2.96-1.092.723-.187 1.707-.482 2.175-.656 1.138-.415 3.274-1.493 4.264-2.156.931-.616 1.065-.643 1.607-.334zm-8.891 8.194c1.406.409 2.652.529 4.968.482 1.74-.033 2.812-.14 4.357-.415.316-.053.589-.1.623-.1.074 0 .053 2.571-.027 3.247-.087.716-.282 1.272-.489 1.406-.214.14-1.285.288-2.718.368-2.939.16-5.958 0-6.895-.375-.508-.207-.563-.476-.569-2.959 0-1.653.013-1.881.1-1.847.053.02.348.107.649.194zm1.587 5.69c.482.06 1.004.12 1.164.14l.289.034-.255.281c-.328.355-.83 1.064-1.011 1.426-.207.415-.275.442-.582.275l-.261-.148-.147-.91a23.34 23.34 0 0 0-.216-1.217l.028.165c-.06-.173-.121-.173.99-.046zm7.137-.074c0 .013-.034.187-.068.382-.04.2-.207 1.292-.374 2.429-.341 2.377-.569 3.494-.777 3.869-.288.502-.978.796-2.095.891-.436.034-1.748-.053-1.821-.121-.053-.06 1.098-1.486 1.279-1.58.167-.094.213-.08.782.213.663.349.998.403.998.181s-.174-.436-.603-.729c-.395-.282-.535-.443-.535-.63 0-.053.194-.355.428-.669s.575-.817.749-1.118l.329-.542.3.041c.609.087.77.08.75-.053-.013-.068-.127-.261-.255-.422-.127-.167-.228-.335-.228-.368 0-.127.622-1.299.824-1.547.174-.214.315-.322.315-.228zm-4.184.536c.334.221 1.593 1.313 1.673 1.446.034.06-1.258 2.082-1.513 2.37-.027.034-.167-.033-.308-.14a20.117 20.117 0 0 0-1.08-.752l-.085-.052-.904-.596.542-.917c.964-1.613.944-1.587 1.151-1.587.107 0 .341.1.523.228zm2.537.24c-.235.288-.428.469-.508.469-.174 0-.456-.154-.931-.502l-.396-.288.791-.047c.348-.013.665-.034.98-.065l-.064.005c.536-.087.536-.08.128.428zm-5.061 3.221c.616.241 1.66.81 1.962 1.065.214.173.214.187.127.401a6.654 6.654 0 0 1-.43.741l.015-.024a10.9 10.9 0 0 0-.417.682l-.032.061c-.213.415-.281.449-.723.329-.476-.141-.729-.382-.863-.818-.181-.609-.469-2.329-.436-2.597.013-.1.294-.04.796.161z"/></symbol><symbol id="weight" viewBox="0 0 32 32"><path d="M14.178.547c-3.974.589-7.247 2.796-8.452 5.685-.384.913-.487 1.474-.487 2.573.007.812.036 1.114.163 1.552.258.862.443 1.301.827 1.92l.356.574-.4.489c-3.154 3.924-3.501 9.444-.871 13.793.982 1.631 2.586 3.235 4.151 4.169l.466.273 12.743-.108.302-.165c1.057-.596 2.548-1.926 3.383-3.004a12.51 12.51 0 0 0 2.413-5.546l.01-.074c.118-.74.118-2.933-.007-3.63-.377-2.148-1.182-3.988-2.452-5.62-.244-.309-.436-.568-.436-.589 0-.014.133-.237.288-.489a7.777 7.777 0 0 0 .864-1.962c.199-.719.199-2.516 0-3.235-.709-2.551-2.836-4.679-5.843-5.851-.843-.331-2.284-.683-3.214-.797-.864-.101-2.999-.08-3.804.043zm4.498 1.171c3.945.769 6.834 3.184 7.365 6.16.118.668.044 1.804-.155 2.436-.2.619-.569 1.345-1.004 1.963-.178.252-.325.54-.325.633s.155.338.377.582c1.846 2.048 2.821 4.614 2.821 7.388-.007 3.156-1.219 5.923-3.553 8.093-.399.373-.968.841-1.271 1.042l-.554.373-12.211.051-.473-.302c-1.714-1.114-3.258-2.954-4.115-4.908-1.078-2.472-1.189-5.34-.31-7.913.466-1.337 1.086-2.429 2.031-3.58.385-.46.562-.733.562-.862 0-.108-.192-.46-.444-.827-.886-1.287-1.248-2.717-1.034-4.068.222-1.365.842-2.487 1.987-3.601 1.493-1.444 3.576-2.4 6.021-2.76 1.012-.151 3.25-.093 4.284.1z"/><path d="M14.509 2.983c-3.028.496-5.4 2.178-6.175 4.385-.178.495-.207.69-.207 1.401s.029.907.207 1.402c.11.316.317.755.458.978.384.618.554.64 1.316.18a11.719 11.719 0 0 1 3.727-1.474l.078-.014c.916-.187 2.674-.259 3.671-.144 1.558.18 3.25.74 4.602 1.538.384.223.776.411.871.411.562 0 1.278-1.618 1.278-2.876 0-2.796-2.674-5.189-6.463-5.786-.805-.129-2.587-.129-3.362 0zm3.657 1.15c1.271.273 2.437.791 3.317 1.473 1.182.913 1.817 2.186 1.713 3.414-.036.489-.221 1.15-.332 1.222-.03.014-.444-.158-.916-.388a14.19 14.19 0 0 0-3.131-1.081l-.097-.018c-.687-.144-.975-.165-2.511-.158-1.515 0-1.832.021-2.489.158a13.307 13.307 0 0 0-3.118 1.064c-1.1.524-1.042.532-1.241-.116-.258-.841-.096-1.955.406-2.796.267-.445.997-1.186 1.529-1.553 1.012-.697 1.899-1.013 3.804-1.358.391-.071 2.564.029 3.066.137zm-1.203 9.271c-.207.26-.207.504.007.712.14.137.281.172.791.209a6.489 6.489 0 0 1 2.815.865l-.031-.017c.606.359 1.529 1.228 1.943 1.854.613.898 1.034 2.185 1.034 3.133 0 .331.03.431.185.575.236.237.547.237.776 0 .163-.165.169-.208.125-.913-.207-3.478-3.184-6.382-6.744-6.576l-.74-.044-.162.202z"/></symbol><symbol id="facebook-icon" viewBox="0 0 16 32"><path d="M14.143 15.971H10.11v14.865H3.998V15.971H1.092v-5.222h2.906V7.367c0-2.417 1.142-6.204 6.167-6.204l4.527.019v5.072h-3.284c-.538 0-1.297.272-1.297 1.425v3.073h4.567l-.534 5.219z"/></symbol><symbol id="github-icon" viewBox="0 0 32 32"><path d="M16 0C7.211 0 0 7.211 0 16c0 7.499 5.262 14.312 12.25 16v-5.293a3.921 3.921 0 0 1-2.062-.06l.028.007c-.946-.278-1.714-.909-2.285-1.869-.363-.613-1.008-1.28-1.68-1.23l-.165-1.867c1.454-.125 2.71.886 3.456 2.139.333.558.715.885 1.205 1.029.472.141.981.074 1.573-.136.149-1.186.693-1.629 1.104-2.256-4.168-.621-5.829-2.832-6.488-4.576-.874-2.318-.405-5.213 1.139-7.043.03-.035.085-.128.064-.192-.709-2.141.154-3.91.186-4.098.818.24.95-.243 3.552 1.336l.448.27c.189.112.128.048.317.032a13.246 13.246 0 0 1 3.349-.469h.01c1.136.014 2.272.176 3.403.483l.146.016c-.013-.003.04-.01.128-.062 3.248-1.968 3.131-1.325 4.003-1.608.032.189.882 1.987.182 4.099-.096.291 2.816 2.957 1.202 7.235-.659 1.744-2.32 3.957-6.486 4.578.534.816 1.176 1.248 1.173 2.928v6.606c6.986-1.688 12.25-8.501 12.25-16 0-8.789-7.211-16-16-16z"/></symbol><symbol id="telegram-icon" viewBox="0 0 44 32"><path d="m17.346 21.048-.676 8.86c.966 0 1.384-.388 1.886-.852l4.528-4.04 9.38 6.414c1.72.894 2.932.422 3.396-1.478L42.02 3.02C42.566.648 41.1-.28 39.424.3L3.23 13.234C.76 14.13.798 15.414 2.81 16l9.254 2.686L33.558 6.134c1.01-.626 1.93-.28 1.174.346L17.346 21.05z"/></symbol><symbol id="modal-close-btn" viewBox="0 0 32 32"><path d="m17.253 16 7.37-7.37a.89.89 0 0 0-1.256-1.252l.001-.001L16 14.747 8.63 7.369a.893.893 0 0 0-1.262 1.262l-.001-.001L14.745 16l-7.376 7.368a.89.89 0 1 0 1.252 1.256l.001-.001 7.376-7.37 7.37 7.37a.89.89 0 0 0 1.254-1.256l.001.001L17.253 16z"/></symbol><symbol id="modal-close-btn-white" viewBox="0 0 32 32"><path fill="#fcfcfc" style="fill:var(--color1,#fcfcfc)" d="M23.884 6.706 16 14.59 8.116 6.706a.995.995 0 0 0-1.38.031 1 1 0 0 0-.031 1.38l7.88 7.884-7.882 7.882a1.002 1.002 0 0 0-.018 1.427.998.998 0 0 0 1.427-.015l7.886-7.882 7.884 7.884a1 1 0 0 0 1.38-.03 1 1 0 0 0 .03-1.38l-7.884-7.884 7.884-7.886a1.002 1.002 0 0 0 .018-1.427.998.998 0 0 0-1.427.015v.002z"/></symbol><symbol id="burger" viewBox="0 0 32 32"><path fill="none" stroke="#fff" style="stroke:var(--color1,#fff)" stroke-linecap="round" stroke-width="2" d="M6 10h20M6 16h20M6 22h20"/></symbol></defs></svg>