<svg aria-hidden="true" style="position:absolute;width:0;height:0;overflow:hidden" xmlns="http://www.w3.org/2000/svg">
  <defs>
<symbol id="dots-sm-1" viewBox="0 0 205 32">
<path d="M155.332 29.617c0 0.982-0.764 1.779-1.706 1.779s-1.706-0.796-1.706-1.779c0-0.982 0.764-1.779 1.706-1.779s1.706 0.796 1.706 1.779z"></path>
<path d="M159.029 27.245c0 0.982-0.764 1.779-1.706 1.779s-1.706-0.796-1.706-1.779c0-0.982 0.764-1.779 1.706-1.779s1.706 0.796 1.706 1.779z"></path>
<path d="M163.292 24.578c0 0.982-0.764 1.779-1.706 1.779s-1.706-0.796-1.706-1.779c0-0.982 0.764-1.779 1.706-1.779s1.706 0.796 1.706 1.779z"></path>
<path d="M167.273 22.207c0 0.982-0.764 1.779-1.706 1.779s-1.706-0.796-1.706-1.779c0-0.982 0.764-1.779 1.706-1.779s1.706 0.796 1.706 1.779z"></path>
<path d="M164.998 28.431c0 0.982-0.764 1.779-1.706 1.779s-1.706-0.796-1.706-1.779c0-0.982 0.764-1.779 1.706-1.779s1.706 0.796 1.706 1.779z"></path>
<path d="M168.694 26.060c0 0.982-0.764 1.779-1.706 1.779s-1.706-0.796-1.706-1.779c0-0.982 0.764-1.779 1.706-1.779s1.706 0.796 1.706 1.779z"></path>
<path d="M172.957 23.392c0 0.982-0.764 1.779-1.706 1.779s-1.706-0.796-1.706-1.779c0-0.982 0.764-1.779 1.706-1.779s1.706 0.796 1.706 1.779z"></path>
<path d="M176.939 21.021c0 0.982-0.764 1.779-1.706 1.779s-1.706-0.796-1.706-1.779c0-0.982 0.764-1.779 1.706-1.779s1.706 0.796 1.706 1.779z"></path>
<path d="M173.243 27.542c0 0.982-0.764 1.779-1.706 1.779s-1.706-0.796-1.706-1.779c0-0.982 0.764-1.779 1.706-1.779s1.706 0.796 1.706 1.779z"></path>
<path d="M176.94 25.171c0 0.982-0.764 1.779-1.706 1.779s-1.706-0.796-1.706-1.779c0-0.982 0.764-1.779 1.706-1.779s1.706 0.796 1.706 1.779z"></path>
<path d="M181.204 22.503c0 0.982-0.764 1.779-1.706 1.779s-1.706-0.796-1.706-1.779c0-0.982 0.764-1.779 1.706-1.779s1.706 0.796 1.706 1.779z"></path>
<path d="M185.183 20.132c0 0.982-0.764 1.779-1.706 1.779s-1.706-0.796-1.706-1.779c0-0.982 0.764-1.779 1.706-1.779s1.706 0.796 1.706 1.779z"></path>
<path d="M181.203 26.356c0 0.982-0.764 1.779-1.706 1.779s-1.706-0.796-1.706-1.779c0-0.982 0.764-1.779 1.706-1.779s1.706 0.796 1.706 1.779z"></path>
<path d="M184.897 23.985c0 0.982-0.764 1.779-1.706 1.779s-1.706-0.796-1.706-1.779c0-0.982 0.764-1.779 1.706-1.779s1.706 0.796 1.706 1.779z"></path>
<path d="M189.162 21.318c0 0.982-0.764 1.779-1.706 1.779s-1.706-0.796-1.706-1.779c0-0.982 0.764-1.779 1.706-1.779s1.706 0.796 1.706 1.779z"></path>
<path d="M193.142 18.947c0 0.982-0.764 1.779-1.706 1.779s-1.706-0.796-1.706-1.779c0-0.982 0.764-1.779 1.706-1.779s1.706 0.796 1.706 1.779z"></path>
<path d="M183.762 29.617c0 0.982-0.764 1.779-1.706 1.779s-1.706-0.796-1.706-1.779c0-0.982 0.764-1.779 1.706-1.779s1.706 0.796 1.706 1.779z"></path>
<path d="M187.458 27.245c0 0.982-0.764 1.779-1.706 1.779s-1.706-0.796-1.706-1.779c0-0.982 0.764-1.779 1.706-1.779s1.706 0.796 1.706 1.779z"></path>
<path d="M192.575 29.913c0 0.982-0.764 1.779-1.706 1.779s-1.706-0.796-1.706-1.779c0-0.982 0.764-1.779 1.706-1.779s1.706 0.796 1.706 1.779z"></path>
<path d="M191.723 24.578c0 0.982-0.764 1.779-1.706 1.779s-1.706-0.796-1.706-1.779c0-0.982 0.764-1.779 1.706-1.779s1.706 0.796 1.706 1.779z"></path>
<path d="M196.84 27.245c0 0.982-0.764 1.779-1.706 1.779s-1.706-0.796-1.706-1.779c0-0.982 0.764-1.779 1.706-1.779s1.706 0.796 1.706 1.779z"></path>
<path d="M200.82 29.913c0 0.982-0.764 1.779-1.706 1.779s-1.706-0.796-1.706-1.779c0-0.982 0.764-1.779 1.706-1.779s1.706 0.796 1.706 1.779z"></path>
<path d="M195.702 22.207c0 0.982-0.764 1.779-1.706 1.779s-1.706-0.796-1.706-1.779c0-0.982 0.764-1.779 1.706-1.779s1.706 0.796 1.706 1.779z"></path>
<path d="M200.82 24.874c0 0.982-0.764 1.779-1.706 1.779s-1.706-0.796-1.706-1.779c0-0.982 0.764-1.779 1.706-1.779s1.706 0.796 1.706 1.779z"></path>
<path d="M204.8 27.542c0 0.982-0.764 1.779-1.706 1.779s-1.706-0.796-1.706-1.779c0-0.982 0.764-1.779 1.706-1.779s1.706 0.796 1.706 1.779z"></path>
<path d="M137.992 10.055c0 0.982-0.764 1.779-1.706 1.779s-1.706-0.796-1.706-1.779c0-0.982 0.764-1.779 1.706-1.779s1.706 0.796 1.706 1.779z"></path>
<path d="M141.688 7.684c0 0.982-0.764 1.779-1.706 1.779s-1.706-0.796-1.706-1.779c0-0.982 0.764-1.779 1.706-1.779s1.706 0.796 1.706 1.779z"></path>
<path d="M145.953 5.016c0 0.982-0.764 1.779-1.706 1.779s-1.706-0.796-1.706-1.779c0-0.982 0.764-1.779 1.706-1.779s1.706 0.796 1.706 1.779z"></path>
<path d="M149.932 2.645c0 0.982-0.764 1.779-1.706 1.779s-1.706-0.796-1.706-1.779c0-0.982 0.764-1.779 1.706-1.779s1.706 0.796 1.706 1.779z"></path>
<path d="M130.884 9.758c0 0.982-0.764 1.779-1.706 1.779s-1.706-0.796-1.706-1.779c0-0.982 0.764-1.779 1.706-1.779s1.706 0.796 1.706 1.779z"></path>
<path d="M134.579 7.387c0 0.982-0.764 1.779-1.706 1.779s-1.706-0.796-1.706-1.779c0-0.982 0.764-1.779 1.706-1.779s1.706 0.796 1.706 1.779z"></path>
<path d="M138.844 4.72c0 0.982-0.764 1.779-1.706 1.779s-1.706-0.796-1.706-1.779c0-0.982 0.764-1.779 1.706-1.779s1.706 0.796 1.706 1.779z"></path>
<path d="M142.824 2.349c0 0.982-0.764 1.779-1.706 1.779s-1.706-0.796-1.706-1.779c0-0.982 0.764-1.779 1.706-1.779s1.706 0.796 1.706 1.779z"></path>
<path d="M146.804 29.617c0 0.982-0.764 1.779-1.706 1.779s-1.706-0.796-1.706-1.779c0-0.982 0.764-1.779 1.706-1.779s1.706 0.796 1.706 1.779z"></path>
<path d="M150.499 27.245c0 0.982-0.764 1.779-1.706 1.779s-1.706-0.796-1.706-1.779c0-0.982 0.764-1.779 1.706-1.779s1.706 0.796 1.706 1.779z"></path>
<path d="M154.763 24.578c0 0.982-0.764 1.779-1.706 1.779s-1.706-0.796-1.706-1.779c0-0.982 0.764-1.779 1.706-1.779s1.706 0.796 1.706 1.779z"></path>
<path d="M158.744 22.207c0 0.982-0.764 1.779-1.706 1.779s-1.706-0.796-1.706-1.779c0-0.982 0.764-1.779 1.706-1.779s1.706 0.796 1.706 1.779z"></path>
<path d="M142.256 27.839c0 0.982-0.764 1.779-1.706 1.779s-1.706-0.796-1.706-1.779c0-0.982 0.764-1.779 1.706-1.779s1.706 0.796 1.706 1.779z"></path>
<path d="M145.951 25.468c0 0.982-0.764 1.779-1.706 1.779s-1.706-0.796-1.706-1.779c0-0.982 0.764-1.779 1.706-1.779s1.706 0.796 1.706 1.779z"></path>
<path d="M150.215 22.799c0 0.982-0.764 1.779-1.706 1.779s-1.706-0.796-1.706-1.779c0-0.982 0.764-1.779 1.706-1.779s1.706 0.796 1.706 1.779z"></path>
<path d="M154.196 20.429c0 0.982-0.764 1.779-1.706 1.779s-1.706-0.796-1.706-1.779c0-0.982 0.764-1.779 1.706-1.779s1.706 0.796 1.706 1.779z"></path>
<path d="M143.962 21.614c0 0.982-0.764 1.779-1.706 1.779s-1.706-0.796-1.706-1.779c0-0.982 0.764-1.779 1.706-1.779s1.706 0.796 1.706 1.779z"></path>
<path d="M147.656 19.243c0 0.982-0.764 1.779-1.706 1.779s-1.706-0.796-1.706-1.779c0-0.982 0.764-1.779 1.706-1.779s1.706 0.796 1.706 1.779z"></path>
<path d="M151.922 16.575c0 0.982-0.764 1.779-1.706 1.779s-1.706-0.796-1.706-1.779c0-0.982 0.764-1.779 1.706-1.779s1.706 0.796 1.706 1.779z"></path>
<path d="M155.901 14.204c0 0.982-0.764 1.779-1.706 1.779s-1.706-0.796-1.706-1.779c0-0.982 0.764-1.779 1.706-1.779s1.706 0.796 1.706 1.779z"></path>
<path d="M143.962 11.24c0 0.982-0.764 1.779-1.706 1.779s-1.706-0.796-1.706-1.779c0-0.982 0.764-1.779 1.706-1.779s1.706 0.796 1.706 1.779z"></path>
<path d="M147.656 8.869c0 0.982-0.764 1.779-1.706 1.779s-1.706-0.796-1.706-1.779c0-0.982 0.764-1.779 1.706-1.779s1.706 0.796 1.706 1.779z"></path>
<path d="M151.922 6.202c0 0.982-0.764 1.779-1.706 1.779s-1.706-0.796-1.706-1.779c0-0.982 0.764-1.779 1.706-1.779s1.706 0.796 1.706 1.779z"></path>
<path d="M155.901 3.83c0 0.982-0.764 1.779-1.706 1.779s-1.706-0.796-1.706-1.779c0-0.982 0.764-1.779 1.706-1.779s1.706 0.796 1.706 1.779z"></path>
<path d="M143.108 16.872c0 0.982-0.764 1.779-1.706 1.779s-1.706-0.796-1.706-1.779c0-0.982 0.764-1.779 1.706-1.779s1.706 0.796 1.706 1.779z"></path>
<path d="M146.804 14.5c0 0.982-0.764 1.779-1.706 1.779s-1.706-0.796-1.706-1.779c0-0.982 0.764-1.779 1.706-1.779s1.706 0.796 1.706 1.779z"></path>
<path d="M151.068 11.834c0 0.982-0.764 1.779-1.706 1.779s-1.706-0.796-1.706-1.779c0-0.982 0.764-1.779 1.706-1.779s1.706 0.796 1.706 1.779z"></path>
<path d="M155.048 9.462c0 0.982-0.764 1.779-1.706 1.779s-1.706-0.796-1.706-1.779c0-0.982 0.764-1.779 1.706-1.779s1.706 0.796 1.706 1.779z"></path>
<path d="M125.198 8.276c0 0.982-0.764 1.779-1.706 1.779s-1.706-0.796-1.706-1.779c0-0.982 0.764-1.779 1.706-1.779s1.706 0.796 1.706 1.779z"></path>
<path d="M128.895 5.905c0 0.982-0.764 1.779-1.706 1.779s-1.706-0.796-1.706-1.779c0-0.982 0.764-1.779 1.706-1.779s1.706 0.796 1.706 1.779z"></path>
<path d="M133.159 3.238c0 0.982-0.764 1.779-1.706 1.779s-1.706-0.796-1.706-1.779c0-0.982 0.764-1.779 1.706-1.779s1.706 0.796 1.706 1.779z"></path>
<path d="M131.169 10.054c0.942 0 1.706-0.796 1.706-1.778s-0.764-1.779-1.706-1.779-1.706 0.796-1.706 1.779c0 0.982 0.764 1.778 1.706 1.778z"></path>
<path d="M52.732 21.475c0.145 0.985-0.504 1.906-1.449 2.057s-1.828-0.525-1.973-1.51c-0.145-0.985 0.504-1.906 1.449-2.057s1.828 0.525 1.973 1.51z"></path>
<path d="M56.090 18.504c0.145 0.985-0.504 1.906-1.449 2.057s-1.828-0.525-1.973-1.51c-0.145-0.985 0.504-1.906 1.449-2.057s1.828 0.525 1.973 1.51z"></path>
<path d="M59.974 15.144c0.145 0.985-0.504 1.906-1.449 2.057s-1.828-0.525-1.973-1.51c-0.145-0.985 0.504-1.906 1.449-2.057s1.828 0.525 1.973 1.51z"></path>
<path d="M63.617 12.128c0.145 0.985-0.504 1.906-1.449 2.057s-1.828-0.525-1.973-1.51c-0.145-0.985 0.504-1.906 1.449-2.057s1.828 0.525 1.973 1.51z"></path>
<path d="M2.132 19.067c0 0.997-0.779 1.805-1.741 1.805s-1.741-0.808-1.741-1.805c0-0.997 0.779-1.805 1.741-1.805s1.741 0.808 1.741 1.805z"></path>
<path d="M6.485 16.36c0 0.997-0.779 1.805-1.741 1.805s-1.741-0.808-1.741-1.805c0-0.997 0.779-1.805 1.741-1.805s1.741 0.808 1.741 1.805z"></path>
<path d="M10.546 13.953c0 0.997-0.779 1.805-1.741 1.805s-1.741-0.808-1.741-1.805c0-0.997 0.779-1.805 1.741-1.805s1.741 0.808 1.741 1.805z"></path>
<path d="M0.102 25.984c0 0.997-0.779 1.805-1.741 1.805s-1.741-0.808-1.741-1.805c0-0.997 0.779-1.805 1.741-1.805s1.741 0.808 1.741 1.805z"></path>
<path d="M3.874 23.578c0 0.997-0.779 1.805-1.741 1.805s-1.741-0.808-1.741-1.805c0-0.997 0.779-1.805 1.741-1.805s1.741 0.808 1.741 1.805z"></path>
<path d="M8.227 20.871c0 0.997-0.779 1.805-1.741 1.805s-1.741-0.808-1.741-1.805c0-0.997 0.779-1.805 1.741-1.805s1.741 0.808 1.741 1.805z"></path>
<path d="M12.287 18.465c0 0.997-0.779 1.805-1.741 1.805s-1.741-0.808-1.741-1.805c0-0.997 0.779-1.805 1.741-1.805s1.741 0.808 1.741 1.805z"></path>
<path d="M4.453 28.39c0 0.997-0.779 1.805-1.741 1.805s-1.741-0.808-1.741-1.805c0-0.997 0.779-1.805 1.741-1.805s1.741 0.808 1.741 1.805z"></path>
<path d="M8.225 25.984c0 0.997-0.779 1.805-1.741 1.805s-1.741-0.808-1.741-1.805c0-0.997 0.779-1.805 1.741-1.805s1.741 0.808 1.741 1.805z"></path>
<path d="M12.577 23.277c0 0.997-0.779 1.805-1.741 1.805s-1.741-0.808-1.741-1.805c0-0.997 0.779-1.805 1.741-1.805s1.741 0.808 1.741 1.805z"></path>
<path d="M16.637 20.871c0 0.997-0.779 1.805-1.741 1.805s-1.741-0.808-1.741-1.805c0-0.997 0.779-1.805 1.741-1.805s1.741 0.808 1.741 1.805z"></path>
<path d="M9.384 29.895c0 0.997-0.779 1.805-1.741 1.805s-1.741-0.808-1.741-1.805c0-0.997 0.779-1.805 1.741-1.805s1.741 0.808 1.741 1.805z"></path>
<path d="M13.156 27.488c0 0.997-0.779 1.805-1.741 1.805s-1.741-0.808-1.741-1.805c0-0.997 0.779-1.805 1.741-1.805s1.741 0.808 1.741 1.805z"></path>
<path d="M17.509 24.781c0 0.997-0.779 1.805-1.741 1.805s-1.741-0.808-1.741-1.805c0-0.997 0.779-1.805 1.741-1.805s1.741 0.808 1.741 1.805z"></path>
<path d="M21.569 22.375c0 0.997-0.779 1.805-1.741 1.805s-1.741-0.808-1.741-1.805c0-0.997 0.779-1.805 1.741-1.805s1.741 0.808 1.741 1.805z"></path>
<path d="M15.768 30.196c0 0.997-0.779 1.805-1.741 1.805s-1.741-0.808-1.741-1.805c0-0.997 0.779-1.805 1.741-1.805s1.741 0.808 1.741 1.805z"></path>
<path d="M19.539 27.789c0 0.997-0.779 1.805-1.741 1.805s-1.741-0.808-1.741-1.805c0-0.997 0.779-1.805 1.741-1.805s1.741 0.808 1.741 1.805z"></path>
<path d="M23.891 25.082c0 0.997-0.779 1.805-1.741 1.805s-1.741-0.808-1.741-1.805c0-0.997 0.779-1.805 1.741-1.805s1.741 0.808 1.741 1.805z"></path>
<path d="M27.952 22.676c0 0.997-0.779 1.805-1.741 1.805s-1.741-0.808-1.741-1.805c0-0.997 0.779-1.805 1.741-1.805s1.741 0.808 1.741 1.805z"></path>
<path d="M23.311 30.195c0 0.997-0.779 1.805-1.741 1.805s-1.741-0.808-1.741-1.805c0-0.997 0.779-1.805 1.741-1.805s1.741 0.808 1.741 1.805z"></path>
<path d="M27.082 27.789c0 0.997-0.779 1.805-1.741 1.805s-1.741-0.808-1.741-1.805c0-0.997 0.779-1.805 1.741-1.805s1.741 0.808 1.741 1.805z"></path>
<path d="M31.434 25.082c0 0.997-0.779 1.805-1.741 1.805s-1.741-0.808-1.741-1.805c0-0.997 0.779-1.805 1.741-1.805s1.741 0.808 1.741 1.805z"></path>
<path d="M35.496 22.676c0 0.997-0.779 1.805-1.741 1.805s-1.741-0.808-1.741-1.805c0-0.997 0.779-1.805 1.741-1.805s1.741 0.808 1.741 1.805z"></path>
<path d="M29.692 29.894c0 0.997-0.779 1.805-1.741 1.805s-1.741-0.808-1.741-1.805c0-0.997 0.779-1.805 1.741-1.805s1.741 0.808 1.741 1.805z"></path>
<path d="M33.463 27.488c0 0.997-0.779 1.805-1.741 1.805s-1.741-0.808-1.741-1.805c0-0.997 0.779-1.805 1.741-1.805s1.741 0.808 1.741 1.805z"></path>
<path d="M37.816 24.781c0 0.997-0.779 1.805-1.741 1.805s-1.741-0.808-1.741-1.805c0-0.997 0.779-1.805 1.741-1.805s1.741 0.808 1.741 1.805z"></path>
<path d="M41.876 22.375c0 0.997-0.779 1.805-1.741 1.805s-1.741-0.808-1.741-1.805c0-0.997 0.779-1.805 1.741-1.805s1.741 0.808 1.741 1.805z"></path>
<path d="M36.945 29.594c0 0.997-0.779 1.805-1.741 1.805s-1.741-0.808-1.741-1.805c0-0.997 0.779-1.805 1.741-1.805s1.741 0.808 1.741 1.805z"></path>
<path d="M40.716 27.187c0 0.997-0.779 1.805-1.741 1.805s-1.741-0.808-1.741-1.805c0-0.997 0.779-1.805 1.741-1.805s1.741 0.808 1.741 1.805z"></path>
<path d="M45.068 24.481c0 0.997-0.779 1.805-1.741 1.805s-1.741-0.808-1.741-1.805c0-0.997 0.779-1.805 1.741-1.805s1.741 0.808 1.741 1.805z"></path>
<path d="M49.129 22.074c0 0.997-0.779 1.805-1.741 1.805s-1.741-0.808-1.741-1.805c0-0.997 0.779-1.805 1.741-1.805s1.741 0.808 1.741 1.805z"></path>
<path d="M43.617 21.773c0 0.997-0.779 1.805-1.741 1.805s-1.741-0.808-1.741-1.805c0-0.997 0.779-1.805 1.741-1.805s1.741 0.808 1.741 1.805z"></path>
<path d="M47.388 19.367c0 0.997-0.779 1.805-1.741 1.805s-1.741-0.808-1.741-1.805c0-0.997 0.779-1.805 1.741-1.805s1.741 0.808 1.741 1.805z"></path>
<path d="M51.74 16.66c0 0.997-0.779 1.805-1.741 1.805s-1.741-0.808-1.741-1.805c0-0.997 0.779-1.805 1.741-1.805s1.741 0.808 1.741 1.805z"></path>
<path d="M55.802 14.254c0 0.997-0.779 1.805-1.741 1.805s-1.741-0.808-1.741-1.805c0-0.997 0.779-1.805 1.741-1.805s1.741 0.808 1.741 1.805z"></path>
</symbol>

<symbol id="dots-md-1" viewBox="0 0 361 32">
<path d="M309.949 29.706c0 0.999-0.789 1.808-1.762 1.808s-1.762-0.809-1.762-1.808c0-0.999 0.789-1.808 1.762-1.808s1.762 0.809 1.762 1.808z"></path>
<path d="M313.767 27.295c0 0.999-0.789 1.808-1.762 1.808s-1.762-0.809-1.762-1.808c0-0.999 0.789-1.808 1.762-1.808s1.762 0.809 1.762 1.808z"></path>
<path d="M318.172 24.583c0 0.999-0.789 1.808-1.762 1.808s-1.762-0.809-1.762-1.808c0-0.999 0.789-1.808 1.762-1.808s1.762 0.809 1.762 1.808z"></path>
<path d="M322.284 22.172c0 0.999-0.789 1.808-1.762 1.808s-1.762-0.809-1.762-1.808c0-0.999 0.789-1.808 1.762-1.808s1.762 0.809 1.762 1.808z"></path>
<path d="M319.935 28.5c0 0.999-0.789 1.808-1.762 1.808s-1.762-0.809-1.762-1.808c0-0.999 0.789-1.808 1.762-1.808s1.762 0.809 1.762 1.808z"></path>
<path d="M323.752 26.090c0 0.999-0.789 1.808-1.762 1.808s-1.762-0.809-1.762-1.808c0-0.999 0.789-1.808 1.762-1.808s1.762 0.809 1.762 1.808z"></path>
<path d="M328.158 23.378c0 0.999-0.789 1.808-1.762 1.808s-1.762-0.809-1.762-1.808c0-0.999 0.789-1.808 1.762-1.808s1.762 0.809 1.762 1.808z"></path>
<path d="M332.27 20.967c0 0.999-0.789 1.808-1.762 1.808s-1.762-0.809-1.762-1.808c0-0.999 0.789-1.808 1.762-1.808s1.762 0.809 1.762 1.808z"></path>
<path d="M328.452 27.596c0 0.999-0.789 1.808-1.762 1.808s-1.762-0.809-1.762-1.808c0-0.999 0.789-1.808 1.762-1.808s1.762 0.809 1.762 1.808z"></path>
<path d="M332.27 25.185c0 0.999-0.789 1.808-1.762 1.808s-1.762-0.809-1.762-1.808c0-0.999 0.789-1.808 1.762-1.808s1.762 0.809 1.762 1.808z"></path>
<path d="M336.675 22.473c0 0.999-0.789 1.808-1.762 1.808s-1.762-0.809-1.762-1.808c0-0.999 0.789-1.808 1.762-1.808s1.762 0.809 1.762 1.808z"></path>
<path d="M340.786 20.063c0 0.999-0.789 1.808-1.762 1.808s-1.762-0.809-1.762-1.808c0-0.999 0.789-1.808 1.762-1.808s1.762 0.809 1.762 1.808z"></path>
<path d="M336.675 26.391c0 0.999-0.789 1.808-1.762 1.808s-1.762-0.809-1.762-1.808c0-0.999 0.789-1.808 1.762-1.808s1.762 0.809 1.762 1.808z"></path>
<path d="M340.493 23.98c0 0.999-0.789 1.808-1.762 1.808s-1.762-0.809-1.762-1.808c0-0.999 0.789-1.808 1.762-1.808s1.762 0.809 1.762 1.808z"></path>
<path d="M344.898 21.268c0 0.999-0.789 1.808-1.762 1.808s-1.762-0.809-1.762-1.808c0-0.999 0.789-1.808 1.762-1.808s1.762 0.809 1.762 1.808z"></path>
<path d="M349.010 18.858c0 0.999-0.789 1.808-1.762 1.808s-1.762-0.809-1.762-1.808c0-0.999 0.789-1.808 1.762-1.808s1.762 0.809 1.762 1.808z"></path>
<path d="M339.318 29.706c0 0.999-0.789 1.808-1.762 1.808s-1.762-0.809-1.762-1.808c0-0.999 0.789-1.808 1.762-1.808s1.762 0.809 1.762 1.808z"></path>
<path d="M343.136 27.295c0 0.999-0.789 1.808-1.762 1.808s-1.762-0.809-1.762-1.808c0-0.999 0.789-1.808 1.762-1.808s1.762 0.809 1.762 1.808z"></path>
<path d="M348.422 30.007c0 0.999-0.789 1.808-1.762 1.808s-1.762-0.809-1.762-1.808c0-0.999 0.789-1.808 1.762-1.808s1.762 0.809 1.762 1.808z"></path>
<path d="M347.541 24.583c0 0.999-0.789 1.808-1.762 1.808s-1.762-0.809-1.762-1.808c0-0.999 0.789-1.808 1.762-1.808s1.762 0.809 1.762 1.808z"></path>
<path d="M352.828 27.295c0 0.999-0.789 1.808-1.762 1.808s-1.762-0.809-1.762-1.808c0-0.999 0.789-1.808 1.762-1.808s1.762 0.809 1.762 1.808z"></path>
<path d="M356.939 30.007c0 0.999-0.789 1.808-1.762 1.808s-1.762-0.809-1.762-1.808c0-0.999 0.789-1.808 1.762-1.808s1.762 0.809 1.762 1.808z"></path>
<path d="M351.653 22.172c0 0.999-0.789 1.808-1.762 1.808s-1.762-0.809-1.762-1.808c0-0.999 0.789-1.808 1.762-1.808s1.762 0.809 1.762 1.808z"></path>
<path d="M356.939 24.884c0 0.999-0.789 1.808-1.762 1.808s-1.762-0.809-1.762-1.808c0-0.999 0.789-1.808 1.762-1.808s1.762 0.809 1.762 1.808z"></path>
<path d="M361.051 27.596c0 0.999-0.789 1.808-1.762 1.808s-1.762-0.809-1.762-1.808c0-0.999 0.789-1.808 1.762-1.808s1.762 0.809 1.762 1.808z"></path>
<path d="M292.034 9.818c0 0.999-0.789 1.808-1.762 1.808s-1.762-0.809-1.762-1.808c0-0.999 0.789-1.808 1.762-1.808s1.762 0.809 1.762 1.808z"></path>
<path d="M295.852 7.408c0 0.999-0.789 1.808-1.762 1.808s-1.762-0.809-1.762-1.808c0-0.999 0.789-1.808 1.762-1.808s1.762 0.809 1.762 1.808z"></path>
<path d="M300.258 4.696c0 0.999-0.789 1.808-1.762 1.808s-1.762-0.809-1.762-1.808c0-0.999 0.789-1.808 1.762-1.808s1.762 0.809 1.762 1.808z"></path>
<path d="M304.368 2.285c0 0.999-0.789 1.808-1.762 1.808s-1.762-0.809-1.762-1.808c0-0.999 0.789-1.808 1.762-1.808s1.762 0.809 1.762 1.808z"></path>
<path d="M284.692 9.516c0 0.999-0.789 1.808-1.762 1.808s-1.762-0.809-1.762-1.808c0-0.999 0.789-1.808 1.762-1.808s1.762 0.809 1.762 1.808z"></path>
<path d="M288.51 7.106c0 0.999-0.789 1.808-1.762 1.808s-1.762-0.809-1.762-1.808c0-0.999 0.789-1.808 1.762-1.808s1.762 0.809 1.762 1.808z"></path>
<path d="M292.915 4.394c0 0.999-0.789 1.808-1.762 1.808s-1.762-0.809-1.762-1.808c0-0.999 0.789-1.808 1.762-1.808s1.762 0.809 1.762 1.808z"></path>
<path d="M297.027 1.984c0 0.999-0.789 1.808-1.762 1.808s-1.762-0.809-1.762-1.808c0-0.999 0.789-1.808 1.762-1.808s1.762 0.809 1.762 1.808z"></path>
<path d="M301.139 29.706c0 0.999-0.789 1.808-1.762 1.808s-1.762-0.809-1.762-1.808c0-0.999 0.789-1.808 1.762-1.808s1.762 0.809 1.762 1.808z"></path>
<path d="M304.956 27.295c0 0.999-0.789 1.808-1.762 1.808s-1.762-0.809-1.762-1.808c0-0.999 0.789-1.808 1.762-1.808s1.762 0.809 1.762 1.808z"></path>
<path d="M309.362 24.583c0 0.999-0.789 1.808-1.762 1.808s-1.762-0.809-1.762-1.808c0-0.999 0.789-1.808 1.762-1.808s1.762 0.809 1.762 1.808z"></path>
<path d="M313.474 22.172c0 0.999-0.789 1.808-1.762 1.808s-1.762-0.809-1.762-1.808c0-0.999 0.789-1.808 1.762-1.808s1.762 0.809 1.762 1.808z"></path>
<path d="M296.44 27.898c0 0.999-0.789 1.808-1.762 1.808s-1.762-0.809-1.762-1.808c0-0.999 0.789-1.808 1.762-1.808s1.762 0.809 1.762 1.808z"></path>
<path d="M300.258 25.487c0 0.999-0.789 1.808-1.762 1.808s-1.762-0.809-1.762-1.808c0-0.999 0.789-1.808 1.762-1.808s1.762 0.809 1.762 1.808z"></path>
<path d="M304.663 22.775c0 0.999-0.789 1.808-1.762 1.808s-1.762-0.809-1.762-1.808c0-0.999 0.789-1.808 1.762-1.808s1.762 0.809 1.762 1.808z"></path>
<path d="M308.775 20.365c0 0.999-0.789 1.808-1.762 1.808s-1.762-0.809-1.762-1.808c0-0.999 0.789-1.808 1.762-1.808s1.762 0.809 1.762 1.808z"></path>
<path d="M298.201 21.57c0 0.999-0.789 1.808-1.762 1.808s-1.762-0.809-1.762-1.808c0-0.999 0.789-1.808 1.762-1.808s1.762 0.809 1.762 1.808z"></path>
<path d="M302.019 19.16c0 0.999-0.789 1.808-1.762 1.808s-1.762-0.809-1.762-1.808c0-0.999 0.789-1.808 1.762-1.808s1.762 0.809 1.762 1.808z"></path>
<path d="M306.425 16.447c0 0.999-0.789 1.808-1.762 1.808s-1.762-0.809-1.762-1.808c0-0.999 0.789-1.808 1.762-1.808s1.762 0.809 1.762 1.808z"></path>
<path d="M310.536 14.037c0 0.999-0.789 1.808-1.762 1.808s-1.762-0.809-1.762-1.808c0-0.999 0.789-1.808 1.762-1.808s1.762 0.809 1.762 1.808z"></path>
<path d="M298.201 11.024c0 0.999-0.789 1.808-1.762 1.808s-1.762-0.809-1.762-1.808c0-0.999 0.789-1.808 1.762-1.808s1.762 0.809 1.762 1.808z"></path>
<path d="M302.019 8.613c0 0.999-0.789 1.808-1.762 1.808s-1.762-0.809-1.762-1.808c0-0.999 0.789-1.808 1.762-1.808s1.762 0.809 1.762 1.808z"></path>
<path d="M306.425 5.901c0 0.999-0.789 1.808-1.762 1.808s-1.762-0.809-1.762-1.808c0-0.999 0.789-1.808 1.762-1.808s1.762 0.809 1.762 1.808z"></path>
<path d="M310.536 3.49c0 0.999-0.789 1.808-1.762 1.808s-1.762-0.809-1.762-1.808c0-0.999 0.789-1.808 1.762-1.808s1.762 0.809 1.762 1.808z"></path>
<path d="M297.321 16.749c0 0.999-0.789 1.808-1.762 1.808s-1.762-0.809-1.762-1.808c0-0.999 0.789-1.808 1.762-1.808s1.762 0.809 1.762 1.808z"></path>
<path d="M301.139 14.338c0 0.999-0.789 1.808-1.762 1.808s-1.762-0.809-1.762-1.808c0-0.999 0.789-1.808 1.762-1.808s1.762 0.809 1.762 1.808z"></path>
<path d="M305.544 11.626c0 0.999-0.789 1.808-1.762 1.808s-1.762-0.809-1.762-1.808c0-0.999 0.789-1.808 1.762-1.808s1.762 0.809 1.762 1.808z"></path>
<path d="M309.656 9.216c0 0.999-0.789 1.808-1.762 1.808s-1.762-0.809-1.762-1.808c0-0.999 0.789-1.808 1.762-1.808s1.762 0.809 1.762 1.808z"></path>
<path d="M278.819 8.010c0 0.999-0.789 1.808-1.762 1.808s-1.762-0.809-1.762-1.808c0-0.999 0.789-1.808 1.762-1.808s1.762 0.809 1.762 1.808z"></path>
<path d="M282.637 5.6c0 0.999-0.789 1.808-1.762 1.808s-1.762-0.809-1.762-1.808c0-0.999 0.789-1.808 1.762-1.808s1.762 0.809 1.762 1.808z"></path>
<path d="M287.042 2.888c0 0.999-0.789 1.808-1.762 1.808s-1.762-0.809-1.762-1.808c0-0.999 0.789-1.808 1.762-1.808s1.762 0.809 1.762 1.808z"></path>
<path d="M284.986 9.818c0.973 0 1.762-0.809 1.762-1.808s-0.789-1.808-1.762-1.808-1.762 0.809-1.762 1.808 0.789 1.808 1.762 1.808z"></path>
<path d="M3.525 28.466c0 0.999-0.789 1.808-1.762 1.808s-1.762-0.809-1.762-1.808c0-0.999 0.789-1.808 1.762-1.808s1.762 0.809 1.762 1.808z"></path>
<path d="M7.342 26.055c0 0.999-0.789 1.808-1.762 1.808s-1.762-0.809-1.762-1.808c0-0.999 0.789-1.808 1.762-1.808s1.762 0.809 1.762 1.808z"></path>
<path d="M11.748 23.344c0 0.999-0.789 1.808-1.762 1.808s-1.762-0.809-1.762-1.808c0-0.999 0.789-1.808 1.762-1.808s1.762 0.809 1.762 1.808z"></path>
<path d="M15.859 20.933c0 0.999-0.789 1.808-1.762 1.808s-1.762-0.809-1.762-1.808c0-0.999 0.789-1.808 1.762-1.808s1.762 0.809 1.762 1.808z"></path>
<path d="M25.845 29.37c0 0.999-0.789 1.808-1.762 1.808s-1.762-0.809-1.762-1.808c0-0.999 0.789-1.808 1.762-1.808s1.762 0.809 1.762 1.808z"></path>
<path d="M29.663 26.959c0 0.999-0.789 1.808-1.762 1.808s-1.762-0.809-1.762-1.808c0-0.999 0.789-1.808 1.762-1.808s1.762 0.809 1.762 1.808z"></path>
<path d="M34.068 24.248c0 0.999-0.789 1.808-1.762 1.808s-1.762-0.809-1.762-1.808c0-0.999 0.789-1.808 1.762-1.808s1.762 0.809 1.762 1.808z"></path>
<path d="M38.179 21.837c0 0.999-0.789 1.808-1.762 1.808s-1.762-0.809-1.762-1.808c0-0.999 0.789-1.808 1.762-1.808s1.762 0.809 1.762 1.808z"></path>
<path d="M34.949 28.164c0 0.999-0.789 1.808-1.762 1.808s-1.762-0.809-1.762-1.808c0-0.999 0.789-1.808 1.762-1.808s1.762 0.809 1.762 1.808z"></path>
<path d="M38.767 25.754c0 0.999-0.789 1.808-1.762 1.808s-1.762-0.809-1.762-1.808c0-0.999 0.789-1.808 1.762-1.808s1.762 0.809 1.762 1.808z"></path>
<path d="M43.172 23.042c0 0.999-0.789 1.808-1.762 1.808s-1.762-0.809-1.762-1.808c0-0.999 0.789-1.808 1.762-1.808s1.762 0.809 1.762 1.808z"></path>
<path d="M47.284 20.631c0 0.999-0.789 1.808-1.762 1.808s-1.762-0.809-1.762-1.808c0-0.999 0.789-1.808 1.762-1.808s1.762 0.809 1.762 1.808z"></path>
<path d="M51.689 17.016c0 0.999-0.789 1.808-1.762 1.808s-1.762-0.809-1.762-1.808c0-0.999 0.789-1.808 1.762-1.808s1.762 0.809 1.762 1.808z"></path>
<path d="M42.291 19.125c0 0.999-0.789 1.808-1.762 1.808s-1.762-0.809-1.762-1.808c0-0.999 0.789-1.808 1.762-1.808s1.762 0.809 1.762 1.808z"></path>
<path d="M17.622 29.069c0 0.999-0.789 1.808-1.762 1.808s-1.762-0.809-1.762-1.808c0-0.999 0.789-1.808 1.762-1.808s1.762 0.809 1.762 1.808z"></path>
<path d="M21.44 26.658c0 0.999-0.789 1.808-1.762 1.808s-1.762-0.809-1.762-1.808c0-0.999 0.789-1.808 1.762-1.808s1.762 0.809 1.762 1.808z"></path>
<path d="M25.845 23.946c0 0.999-0.789 1.808-1.762 1.808s-1.762-0.809-1.762-1.808c0-0.999 0.789-1.808 1.762-1.808s1.762 0.809 1.762 1.808z"></path>
<path d="M29.956 21.536c0 0.999-0.789 1.808-1.762 1.808s-1.762-0.809-1.762-1.808c0-0.999 0.789-1.808 1.762-1.808s1.762 0.809 1.762 1.808z"></path>
<path d="M10.28 28.767c0 0.999-0.789 1.808-1.762 1.808s-1.762-0.809-1.762-1.808c0-0.999 0.789-1.808 1.762-1.808s1.762 0.809 1.762 1.808z"></path>
<path d="M14.097 26.356c0 0.999-0.789 1.808-1.762 1.808s-1.762-0.809-1.762-1.808c0-0.999 0.789-1.808 1.762-1.808s1.762 0.809 1.762 1.808z"></path>
<path d="M18.503 23.645c0 0.999-0.789 1.808-1.762 1.808s-1.762-0.809-1.762-1.808c0-0.999 0.789-1.808 1.762-1.808s1.762 0.809 1.762 1.808z"></path>
<path d="M22.614 21.234c0 0.999-0.789 1.808-1.762 1.808s-1.762-0.809-1.762-1.808c0-0.999 0.789-1.808 1.762-1.808s1.762 0.809 1.762 1.808z"></path>
</symbol>
 </defs>
</svg>