<?xml version="1.0" standalone="no"?>
<!DOCTYPE svg PUBLIC "-//W3C//DTD SVG 20010904//EN"
 "http://www.w3.org/TR/2001/REC-SVG-20010904/DTD/svg10.dtd">
<svg version="1.0" xmlns="http://www.w3.org/2000/svg"
 width="85.000000pt" height="85.000000pt" viewBox="0 0 85.000000 85.000000"
 preserveAspectRatio="xMidYMid meet">
<metadata>
Created by potrace 1.14, written by Peter Selinger 2001-2017
</metadata>
<g transform="translate(0.000000,85.000000) scale(0.100000,-0.100000)"
fill="#000000" stroke="none">
<path d="M394 811 c-17 -9 -49 -35 -71 -59 -32 -33 -39 -48 -35 -69 3 -15 1
-24 -5 -20 -14 9 -43 -46 -49 -95 -3 -24 -10 -59 -16 -78 -15 -44 -12 -82 6
-92 8 -5 18 -23 21 -41 13 -56 38 -72 69 -41 14 14 16 13 15 -8 -2 -39 33
-262 44 -275 13 -17 141 -17 155 -1 6 7 13 33 17 58 7 47 14 98 20 140 12 88
19 118 35 150 21 41 26 130 8 130 -6 0 -1 11 11 24 13 14 23 35 22 48 0 13 -1
46 -1 74 0 61 -35 121 -87 149 -44 24 -119 27 -159 6z"/>
</g>
</svg>
